<svg width="16" height="17" viewBox="0 0 16 17" fill="none" xmlns="http://www.w3.org/2000/svg">
<g id="alert-triangle">
<path id="Icon" d="M7.99977 5.83314V8.49981M7.99977 11.1665H8.00644M6.85977 2.40648L1.2131 11.8331C1.09668 12.0348 1.03508 12.2633 1.03443 12.4962C1.03378 12.729 1.0941 12.9579 1.20939 13.1602C1.32468 13.3624 1.49092 13.531 1.69157 13.649C1.89223 13.7671 2.1203 13.8306 2.3531 13.8331H13.6464C13.8792 13.8306 14.1073 13.7671 14.308 13.649C14.5086 13.531 14.6749 13.3624 14.7902 13.1602C14.9054 12.9579 14.9658 12.729 14.9651 12.4962C14.9645 12.2633 14.9029 12.0348 14.7864 11.8331L9.13977 2.40648C9.02092 2.21055 8.85358 2.04856 8.6539 1.93613C8.45422 1.82371 8.22893 1.76465 7.99977 1.76465C7.77061 1.76465 7.54532 1.82371 7.34564 1.93613C7.14596 2.04856 6.97862 2.21055 6.85977 2.40648Z" stroke="#DC6803" stroke-width="1.33333" stroke-linecap="round" stroke-linejoin="round"/>
</g>
</svg>
