<svg width="26" height="26" viewBox="0 0 26 26" fill="none" xmlns="http://www.w3.org/2000/svg">
<g id="alert-circle">
<g id="Icon">
<path d="M13.0001 23.8332C18.9832 23.8332 23.8334 18.9829 23.8334 12.9998C23.8334 7.01675 18.9832 2.1665 13.0001 2.1665C7.017 2.1665 2.16675 7.01675 2.16675 12.9998C2.16675 18.9829 7.017 23.8332 13.0001 23.8332Z" fill="#3251FF"/>
<path d="M13.0001 8.6665V12.9998M13.0001 17.3332H13.0109M23.8334 12.9998C23.8334 18.9829 18.9832 23.8332 13.0001 23.8332C7.017 23.8332 2.16675 18.9829 2.16675 12.9998C2.16675 7.01675 7.017 2.1665 13.0001 2.1665C18.9832 2.1665 23.8334 7.01675 23.8334 12.9998Z" stroke="white" stroke-width="2" stroke-linecap="round" stroke-linejoin="round"/>
</g>
</g>
</svg>
