<svg width="24" height="26" viewBox="0 0 24 26" fill="none" xmlns="http://www.w3.org/2000/svg">
<g id="Apple logo">
<path id="Vector" d="M19.5736 13.6943C19.5616 11.571 20.5554 9.9684 22.5671 8.78816C21.4415 7.23186 19.7412 6.37561 17.4961 6.20783C15.3707 6.04584 13.0477 7.40543 12.1975 7.40543C11.2995 7.40543 9.23991 6.26569 7.6234 6.26569C4.28262 6.31776 0.7323 8.84023 0.7323 13.972C0.7323 15.4878 1.01968 17.0537 1.59444 18.6698C2.36078 20.7931 5.1268 26 8.01256 25.9132C9.5213 25.8785 10.587 24.8776 12.5507 24.8776C14.4546 24.8776 15.4425 25.9132 17.1249 25.9132C20.0346 25.8727 22.5372 21.1402 23.2676 19.0111C19.364 17.235 19.5736 13.8042 19.5736 13.6943ZM16.1849 4.19448C17.8194 2.31998 17.6697 0.613262 17.6218 0C16.1789 0.0809969 14.5085 0.948821 13.5566 2.01914C12.5088 3.16466 11.8922 4.58211 12.0239 6.17891C13.5865 6.29461 15.0114 5.51936 16.1849 4.19448Z" fill="black"/>
</g>
</svg>
