<svg width="26" height="26" viewBox="0 0 26 26" fill="none" xmlns="http://www.w3.org/2000/svg">
<g id="bxs:chat">
<path id="Vector" d="M4.33341 19.5H6.50008V23.9211L12.0262 19.5H17.3334C18.5283 19.5 19.5001 18.5283 19.5001 17.3333V8.66667C19.5001 7.47175 18.5283 6.5 17.3334 6.5H4.33341C3.1385 6.5 2.16675 7.47175 2.16675 8.66667V17.3333C2.16675 18.5283 3.1385 19.5 4.33341 19.5Z" fill="#3251FF"/>
<path id="Vector_2" d="M21.6667 2.1665H8.66667C7.47175 2.1665 6.5 3.13825 6.5 4.33317H19.5C20.6949 4.33317 21.6667 5.30492 21.6667 6.49984V15.1665C22.8616 15.1665 23.8333 14.1948 23.8333 12.9998V4.33317C23.8333 3.13825 22.8616 2.1665 21.6667 2.1665Z" fill="#3251FF"/>
</g>
</svg>
