<svg width="32" height="32" viewBox="0 0 32 32" fill="none" xmlns="http://www.w3.org/2000/svg">
<g id="lets-icons:check-fill">
<path id="Vector" fill-rule="evenodd" clip-rule="evenodd" d="M16 26C17.3132 26 18.6136 25.7413 19.8268 25.2388C21.0401 24.7362 22.1425 23.9997 23.0711 23.0711C23.9997 22.1425 24.7362 21.0401 25.2388 19.8268C25.7413 18.6136 26 17.3132 26 16C26 14.6868 25.7413 13.3864 25.2388 12.1732C24.7362 10.9599 23.9997 9.85752 23.0711 8.92893C22.1425 8.00035 21.0401 7.26375 19.8268 6.7612C18.6136 6.25866 17.3132 6 16 6C13.3478 6 10.8043 7.05357 8.92893 8.92893C7.05357 10.8043 6 13.3478 6 16C6 18.6522 7.05357 21.1957 8.92893 23.0711C10.8043 24.9464 13.3478 26 16 26ZM15.7422 20.0444L21.2978 13.3778L19.5911 11.9556L14.8133 17.6878L12.3411 15.2144L10.77 16.7856L14.1033 20.1189L14.9633 20.9789L15.7422 20.0444Z" fill="#3251FF"/>
</g>
</svg>
