<svg width="28" height="28" viewBox="0 0 28 28" fill="none" xmlns="http://www.w3.org/2000/svg">
<g id="Frame 1171275305">
<g id="Clip path group">
<mask id="mask0_383_11836" style="mask-type:luminance" maskUnits="userSpaceOnUse" x="0" y="0" width="28" height="28">
<g id="33a9220519">
<path id="Vector" d="M0.93335 3.17139L24.8288 0.933561L27.0666 24.829L3.17118 27.0668L0.93335 3.17139Z" fill="white"/>
</g>
</mask>
<g mask="url(#mask0_383_11836)">
<g id="Group">
<path id="Vector_2" d="M25.9479 12.8842C25.889 12.2552 25.5968 11.6412 25.0806 11.1996C24.5802 10.7675 24.2736 10.1603 24.2133 9.51634C24.1942 9.31207 24.2 9.11228 24.2257 8.90518C24.2566 8.69623 24.2619 8.49103 24.2435 8.29352C24.1403 7.19236 23.3223 6.25368 22.191 6.03484C21.7632 5.95482 21.3717 5.76632 21.0462 5.49658C20.7207 5.22684 20.4632 4.88114 20.3051 4.47564C19.8801 3.40598 18.8059 2.7765 17.7047 2.87963C17.5072 2.89812 17.3052 2.9416 17.1069 3.00931C16.2836 3.29656 15.3739 3.14158 14.6928 2.60083C14.168 2.16963 13.5171 1.99586 12.8813 2.0554C12.2523 2.11431 11.6396 2.40641 11.1981 2.92266C10.7647 3.42449 10.1588 3.73096 9.51357 3.79139C9.31606 3.80988 9.10938 3.80331 8.9077 3.77717C8.69887 3.7476 8.49367 3.74225 8.29616 3.76075C7.19501 3.86387 6.25632 4.68186 6.03735 5.81182C5.95733 6.23962 5.76896 6.63254 5.49872 6.95261C5.22898 7.27809 4.88328 7.53564 4.47371 7.69408C3.4027 8.11917 2.77323 9.19341 2.87635 10.2946C2.89485 10.4921 2.9382 10.6927 3.00738 10.8923C3.07593 11.0851 3.11387 11.2863 3.133 11.4905C3.19331 12.1344 3.0102 12.7875 2.59337 13.3055C2.16808 13.8353 1.9936 14.493 2.05251 15.122C2.11142 15.7511 2.40499 16.365 2.92124 16.8065C3.57892 17.374 3.90012 18.2392 3.77072 19.1014C3.74115 19.3103 3.73445 19.5156 3.75294 19.7131C3.85607 20.8143 4.67406 21.753 5.80499 21.9677C6.2328 22.0478 6.62559 22.2348 6.94972 22.5046C7.2752 22.7744 7.53325 23.1255 7.69131 23.531C8.11627 24.6006 9.19051 25.2301 10.2917 25.127C10.4905 25.1084 10.6912 25.065 10.8895 24.9973C11.0837 24.9286 11.2843 24.8853 11.4872 24.8663C12.1325 24.8059 12.7847 24.9945 13.3036 25.4058C13.8388 25.8306 14.4896 26.0043 15.1186 25.9454C15.749 25.8864 16.3617 25.5943 16.8032 25.0781C17.2367 24.5776 17.8426 24.2711 18.4879 24.2107C18.6854 24.1922 18.8919 24.1974 19.0995 24.2284C19.307 24.2581 19.5081 24.2639 19.7111 24.2449C20.8109 24.1419 21.7495 23.3239 21.9699 22.1938C22.0499 21.766 22.2369 21.3732 22.5066 21.0477C22.7764 20.7222 23.1222 20.466 23.5331 20.3075C24.7964 19.8084 25.4449 18.3981 24.9998 17.1133C24.9313 16.9205 24.892 16.7195 24.8734 16.5206C24.8131 15.8767 24.9975 15.2235 25.4142 14.7041C25.8332 14.1654 26.0069 13.5133 25.9479 12.8842Z" fill="#3251FF"/>
</g>
</g>
</g>
<path id="Vector_3" d="M11.2195 18.4409C11.1284 18.4495 11.0406 18.448 10.9523 18.4256C10.6771 18.3707 10.4369 18.1983 10.301 17.9508L8.17311 14.0712C7.9216 13.6147 8.09164 13.0379 8.54683 12.7865C9.00326 12.5336 9.58015 12.7051 9.83152 13.1602L11.4128 16.0473L18.2811 10.4207C18.6831 10.0922 19.2813 10.1489 19.614 10.5519C19.9425 10.9539 19.8857 11.5507 19.4842 11.8847L11.73 18.2303C11.5827 18.3513 11.4057 18.4235 11.2195 18.4409ZM16.4228 24.0128C16.8877 23.4794 17.5816 23.2057 18.3151 23.311C18.507 23.3389 18.695 23.3408 18.8771 23.3237C19.9132 23.2267 20.774 22.4475 20.969 21.4245C21.0339 21.0774 21.1871 20.7514 21.4164 20.4808C21.6401 20.2094 21.9321 19.9983 22.2606 19.866C23.4323 19.4041 24.0295 18.1138 23.623 16.9231L23.6161 16.9084C23.5609 16.7508 23.5246 16.5858 23.509 16.4189C23.4583 15.8781 23.6169 15.3428 23.9558 14.9186C24.3339 14.4392 24.5117 13.8409 24.4548 13.2339C24.3981 12.6283 24.1124 12.0733 23.6523 11.6781C23.2405 11.3228 22.9854 10.8276 22.9347 10.2868C22.9191 10.1199 22.9236 9.94552 22.9485 9.78036C22.977 9.594 22.9842 9.40406 22.9663 9.2123C22.8697 8.18041 22.0906 7.32098 21.0675 7.12593C20.726 7.0605 20.3944 6.90786 20.1238 6.67853C19.8523 6.45347 19.6414 6.16289 19.5089 5.83295C19.1273 4.86393 18.1367 4.25809 17.1062 4.3546C16.9145 4.37256 16.7293 4.41634 16.551 4.4734C16.3933 4.52852 16.2283 4.56485 16.0614 4.58048C15.5206 4.63112 14.9853 4.47251 14.5611 4.13371C14.0873 3.75503 13.4889 3.57727 12.8764 3.63463C12.2708 3.69135 11.7158 3.97712 11.315 4.43771C10.9611 4.84938 10.4646 5.10462 9.92379 5.15527C9.75687 5.1709 9.588 5.16584 9.42285 5.14095C9.23649 5.11248 9.04655 5.10522 8.85479 5.12318C7.82289 5.21981 6.96345 5.9989 6.76841 7.02193C6.70349 7.36896 6.55033 7.69503 6.321 7.96561C6.09594 8.23718 5.80535 8.44809 5.47542 8.58058C4.50639 8.96218 3.90055 9.95271 3.99706 10.9832C4.01514 11.1764 4.0588 11.3601 4.11586 11.5385C4.17098 11.6961 4.2073 11.8611 4.22345 12.0336C4.2741 12.5744 4.11549 13.1097 3.77806 13.5337C3.398 14.0077 3.22024 14.606 3.27708 15.213C3.3338 15.8186 3.61957 16.3736 4.08154 16.7743C4.62512 17.2438 4.8906 17.9537 4.78341 18.6666L4.77931 18.6822C4.75045 18.8645 4.74806 19.047 4.76563 19.2346C4.86266 20.2706 5.64136 21.1259 6.66439 21.321C7.00728 21.3863 7.33749 21.5391 7.60807 21.7684C7.87965 21.9935 8.09056 22.284 8.22305 22.614C8.60465 23.583 9.59518 24.1888 10.6312 24.0918C10.8133 24.0748 10.9985 24.031 11.181 23.9735C11.8836 23.7338 12.6199 23.8694 13.1708 24.3132C13.6502 24.6914 14.2485 24.8691 14.8555 24.8123C15.4672 24.7606 16.022 24.4734 16.4228 24.0128ZM11.1077 23.741C10.9459 23.7965 10.7754 23.8334 10.614 23.8485C9.68832 23.9352 8.80647 23.3901 8.46568 22.53C8.31841 22.1611 8.08483 21.8365 7.78006 21.5839C7.47542 21.3327 7.10827 21.157 6.72309 21.0859C5.81464 20.9107 5.11534 20.1454 5.02916 19.2252C5.01302 19.0528 5.01821 18.8853 5.04297 18.7188L5.04706 18.7031C5.16182 17.9075 4.86262 17.12 4.25818 16.5949C3.84789 16.2409 3.59126 15.7444 3.54062 15.2037C3.48997 14.6629 3.64997 14.1274 3.98739 13.7034C4.36594 13.2282 4.54521 12.6311 4.48785 12.0186C4.47041 11.8323 4.43163 11.6411 4.36905 11.4633C4.31393 11.3056 4.2776 11.1406 4.26158 10.9696C4.17541 10.0494 4.71481 9.16672 5.58045 8.82541C5.94988 8.68366 6.27401 8.44456 6.52671 8.14117C6.7779 7.83654 6.95266 7.47366 7.02335 7.08434C7.19852 6.17589 7.96522 5.47646 8.88537 5.39029C9.05643 5.37427 9.2253 5.37933 9.39045 5.40422C9.57681 5.43269 9.76624 5.43443 9.95386 5.41686C10.5595 5.36015 11.1144 5.07438 11.5152 4.61379C11.8692 4.2035 12.3657 3.94687 12.9065 3.89623C13.4472 3.84558 13.9827 4.00558 14.4067 4.343C14.8806 4.72168 15.4789 4.89944 16.0859 4.84259C16.2735 4.82502 16.458 4.78827 16.6413 4.72517C16.799 4.67005 16.964 4.63372 17.1364 4.61757C18.0552 4.53153 18.9384 5.07644 19.2792 5.93657C19.4251 6.3056 19.6601 6.63012 19.9648 6.88268C20.2681 7.134 20.6365 7.30825 21.0203 7.37946C21.9287 7.55462 22.6282 8.32131 22.7143 9.24147C22.7304 9.41253 22.7267 9.58126 22.7004 9.74654C22.6719 9.9329 22.6702 10.1223 22.6878 10.3099C22.7445 10.9156 23.0303 11.4705 23.4909 11.8713C23.9025 12.2252 24.1573 12.7162 24.2084 13.2625C24.2591 13.8033 24.1004 14.3386 23.7616 14.7628C23.383 15.2366 23.2052 15.835 23.2624 16.4461C23.2795 16.6282 23.3159 16.8085 23.3739 16.9826L23.3795 16.9974C23.7493 18.0635 23.2202 19.2194 22.1681 19.6353C21.7986 19.777 21.4745 20.0161 21.2232 20.3194C20.9706 20.6241 20.7964 20.9925 20.7252 21.3763C20.55 22.2848 19.7833 22.9842 18.859 23.0708C18.6976 23.0859 18.5287 23.0808 18.3525 23.057C18.1607 23.029 17.9726 23.0271 17.7905 23.0442C17.1835 23.101 16.6286 23.3868 16.2333 23.8469C15.8793 24.2572 15.3828 24.5138 14.8421 24.5644C14.3013 24.6151 13.7658 24.4551 13.3418 24.1177C12.8624 23.7395 12.2696 23.5612 11.6626 23.6181C11.4764 23.6355 11.2855 23.6784 11.1077 23.741Z" fill="white"/>
</g>
</svg>
