<svg width="26" height="26" viewBox="0 0 26 26" fill="none" xmlns="http://www.w3.org/2000/svg">
<g id="ion:card">
<path id="Vector" d="M1.625 19.0938C1.625 19.848 1.92461 20.5713 2.45792 21.1046C2.99122 21.6379 3.71454 21.9375 4.46875 21.9375H21.5312C22.2855 21.9375 23.0088 21.6379 23.5421 21.1046C24.0754 20.5713 24.375 19.848 24.375 19.0938V11.2734H1.625V19.0938ZM4.97656 15.2344C4.97656 14.8303 5.13707 14.4428 5.42277 14.1571C5.70847 13.8714 6.09596 13.7109 6.5 13.7109H8.9375C9.34154 13.7109 9.72903 13.8714 10.0147 14.1571C10.3004 14.4428 10.4609 14.8303 10.4609 15.2344V16.25C10.4609 16.654 10.3004 17.0415 10.0147 17.3272C9.72903 17.6129 9.34154 17.7734 8.9375 17.7734H6.5C6.09596 17.7734 5.70847 17.6129 5.42277 17.3272C5.13707 17.0415 4.97656 16.654 4.97656 16.25V15.2344ZM21.5312 4.0625H4.46875C3.71454 4.0625 2.99122 4.36211 2.45792 4.89542C1.92461 5.42872 1.625 6.15204 1.625 6.90625V8.22656H24.375V6.90625C24.375 6.15204 24.0754 5.42872 23.5421 4.89542C23.0088 4.36211 22.2855 4.0625 21.5312 4.0625Z" fill="#3251FF"/>
</g>
</svg>
