<svg width="66" height="66" viewBox="0 0 66 66" fill="none" xmlns="http://www.w3.org/2000/svg">
<mask id="mask0_267_8276" style="mask-type:luminance" maskUnits="userSpaceOnUse" x="0" y="0" width="66" height="66">
<path d="M0 0H66V66H0V0Z" fill="white"/>
</mask>
<g mask="url(#mask0_267_8276)">
<path d="M66 33C66 33.5397 65.9863 34.0794 65.9587 34.6191C65.933 35.1587 65.8934 35.6967 65.8402 36.2347C65.7869 36.7727 65.7216 37.3072 65.6425 37.8417C65.5634 38.3763 65.4706 38.9091 65.3658 39.4384C65.2592 39.9678 65.1423 40.4938 65.01 41.018C64.8794 41.5422 64.735 42.063 64.5786 42.5786C64.4222 43.0959 64.252 43.6081 64.0698 44.1169C63.8877 44.6256 63.6934 45.1292 63.4872 45.6294C63.2809 46.1278 63.0627 46.6211 62.8306 47.1092C62.6003 47.5973 62.358 48.0803 62.1019 48.5564C61.8475 49.0325 61.5828 49.5017 61.3044 49.9658C61.0259 50.4281 60.7372 50.8853 60.4381 51.3339C60.1373 51.7825 59.8262 52.2242 59.5048 52.6573C59.1834 53.0922 58.8517 53.5167 58.508 53.9344C58.1659 54.352 57.8136 54.7611 57.4509 55.1616C57.0883 55.562 56.7153 55.9522 56.3337 56.3337C55.9522 56.717 55.5603 57.0883 55.1616 57.4509C54.7611 57.8136 54.352 58.1659 53.9344 58.5097C53.5167 58.8517 53.0905 59.1834 52.6573 59.5066C52.2242 59.828 51.7825 60.1391 51.3339 60.4381C50.8836 60.7389 50.4281 61.0277 49.9641 61.3044C49.5017 61.5828 49.0325 61.8492 48.5547 62.1036C48.0786 62.358 47.5973 62.6003 47.1092 62.8323C46.6211 63.0627 46.1261 63.2809 45.6277 63.4872C45.1292 63.6952 44.6256 63.8894 44.1169 64.0716C43.6081 64.2537 43.0959 64.4222 42.5786 64.5786C42.0612 64.735 41.5422 64.8794 41.018 65.0117C40.4938 65.1423 39.9678 65.2609 39.4367 65.3658C38.9073 65.4706 38.3763 65.5634 37.8417 65.6425C37.3072 65.7216 36.7709 65.7886 36.2347 65.8419C35.6967 65.8934 35.1587 65.933 34.6191 65.9605C34.0794 65.9863 33.5397 66 33 66C32.4586 66 31.9189 65.9863 31.3792 65.9605C30.8412 65.933 30.3016 65.8934 29.7653 65.8419C29.2273 65.7886 28.6911 65.7216 28.1566 65.6425C27.6237 65.5634 27.0909 65.4706 26.5616 65.3658C26.0322 65.2609 25.5045 65.1423 24.9803 65.0117C24.4578 64.8794 23.937 64.735 23.4197 64.5786C22.9023 64.4222 22.3902 64.2537 21.8814 64.0716C21.3727 63.8894 20.8691 63.6952 20.3706 63.4872C19.8722 63.2809 19.3789 63.0627 18.8908 62.8323C18.4009 62.6003 17.9197 62.358 17.4436 62.1036C16.9675 61.8492 16.4966 61.5828 16.0342 61.3044C15.5702 61.0277 15.1147 60.7389 14.6661 60.4381C14.2158 60.1391 13.7758 59.828 13.3409 59.5066C12.9078 59.1834 12.4816 58.8517 12.0639 58.5097C11.6462 58.1659 11.2372 57.8136 10.8384 57.4509C10.438 57.0883 10.0461 56.717 9.66453 56.3337C9.28297 55.9522 8.91 55.562 8.54734 55.1616C8.18469 54.7611 7.83234 54.352 7.49031 53.9344C7.14656 53.5167 6.81484 53.0922 6.49344 52.6573C6.17203 52.2242 5.86094 51.7825 5.56016 51.3339C5.26109 50.8853 4.97234 50.4281 4.69391 49.9658C4.41719 49.5017 4.15078 49.0325 3.89641 48.5564C3.64203 48.0803 3.39797 47.5973 3.16766 47.1092C2.93734 46.6211 2.71734 46.1278 2.51109 45.6294C2.30484 45.1292 2.11063 44.6256 1.92844 44.1169C1.74625 43.6081 1.57781 43.0959 1.41969 42.5786C1.26328 42.063 1.11891 41.5422 0.988281 41.018C0.857656 40.4938 0.739063 39.9678 0.634219 39.4384C0.527656 38.9091 0.436563 38.3763 0.355781 37.8417C0.276719 37.3072 0.211406 36.7727 0.158125 36.2347C0.104844 35.6967 0.0653126 35.1587 0.0395312 34.6191C0.0120312 34.0794 0 33.5397 0 33C0 32.4603 0.0120312 31.9206 0.0395312 31.3809C0.0653126 30.8412 0.104844 30.3033 0.158125 29.7653C0.211406 29.2273 0.276719 28.6928 0.355781 28.1583C0.436563 27.6238 0.527656 27.0909 0.634219 26.5616C0.739063 26.0322 0.857656 25.5063 0.988281 24.982C1.11891 24.4578 1.26328 23.937 1.41969 23.4214C1.57781 22.9041 1.74625 22.3919 1.92844 21.8831C2.11063 21.3744 2.30484 20.8708 2.51109 20.3706C2.71734 19.8722 2.93734 19.3789 3.16766 18.8908C3.39797 18.4027 3.64203 17.9197 3.89641 17.4436C4.15078 16.9675 4.41719 16.4983 4.69391 16.0342C4.97234 15.5719 5.26109 15.1147 5.56016 14.6661C5.86094 14.2175 6.17203 13.7758 6.49344 13.3427C6.81484 12.9078 7.14656 12.4833 7.49031 12.0656C7.83234 11.648 8.18469 11.2389 8.54734 10.8384C8.91 10.438 9.28297 10.0478 9.66453 9.66625C10.0461 9.28297 10.438 8.91172 10.8384 8.54906C11.2372 8.18641 11.6462 7.83406 12.0639 7.49031C12.4816 7.14828 12.9078 6.81656 13.3409 6.49344C13.7758 6.17203 14.2158 5.86094 14.6661 5.56187C15.1147 5.26109 15.5702 4.97234 16.0342 4.69562C16.4966 4.41719 16.9675 4.15078 17.4436 3.89641C17.9197 3.64203 18.4009 3.39969 18.8908 3.16766C19.3789 2.93734 19.8722 2.71906 20.3706 2.51281C20.8691 2.30484 21.3727 2.11063 21.8814 1.92844C22.3902 1.74625 22.9023 1.57781 23.4197 1.42141C23.937 1.265 24.4578 1.12062 24.9803 0.988281C25.5045 0.857656 26.0322 0.739063 26.5616 0.634219C27.0909 0.529375 27.6237 0.436563 28.1566 0.3575C28.6911 0.278437 29.2273 0.211406 29.7653 0.158125C30.3016 0.106563 30.8412 0.0670312 31.3792 0.0395312C31.9189 0.0137499 32.4586 0 33 0C33.5397 0 34.0794 0.0137499 34.6191 0.0395312C35.1587 0.0670312 35.6967 0.106563 36.2347 0.158125C36.7709 0.211406 37.3072 0.278437 37.8417 0.3575C38.3763 0.436563 38.9073 0.529375 39.4367 0.634219C39.9678 0.739063 40.4938 0.857656 41.018 0.988281C41.5422 1.12062 42.0612 1.265 42.5786 1.42141C43.0959 1.57781 43.6081 1.74625 44.1169 1.92844C44.6256 2.11063 45.1292 2.30484 45.6277 2.51281C46.1261 2.71906 46.6211 2.93734 47.1092 3.16766C47.5973 3.39969 48.0786 3.64203 48.5547 3.89641C49.0325 4.15078 49.5017 4.41719 49.9641 4.69562C50.4281 4.97234 50.8836 5.26109 51.3339 5.56187C51.7825 5.86094 52.2242 6.17203 52.6573 6.49344C53.0905 6.81656 53.5167 7.14828 53.9344 7.49031C54.352 7.83406 54.7611 8.18641 55.1616 8.54906C55.5603 8.91172 55.9522 9.28297 56.3337 9.66625C56.7153 10.0478 57.0883 10.438 57.4509 10.8384C57.8136 11.2389 58.1659 11.648 58.508 12.0656C58.8517 12.4833 59.1834 12.9078 59.5048 13.3427C59.8262 13.7758 60.1373 14.2175 60.4381 14.6661C60.7372 15.1147 61.0259 15.5719 61.3044 16.0342C61.5828 16.4983 61.8475 16.9675 62.1019 17.4436C62.358 17.9197 62.6003 18.4027 62.8306 18.8908C63.0627 19.3789 63.2809 19.8722 63.4872 20.3706C63.6934 20.8708 63.8877 21.3744 64.0698 21.8831C64.252 22.3919 64.4222 22.9041 64.5786 23.4214C64.735 23.937 64.8794 24.4578 65.01 24.982C65.1423 25.5063 65.2592 26.0322 65.3658 26.5616C65.4706 27.0909 65.5634 27.6238 65.6425 28.1583C65.7216 28.6928 65.7869 29.2273 65.8402 29.7653C65.8934 30.3033 65.933 30.8412 65.9587 31.3809C65.9863 31.9206 66 32.4603 66 33Z" fill="#FF9C33"/>
</g>
<path d="M61.6877 33.0002C61.6877 33.4694 61.6757 33.9386 61.6533 34.4078C61.6293 34.877 61.5949 35.3445 61.5485 35.812C61.5038 36.2795 61.4454 36.7453 61.3766 37.2094C61.3079 37.6734 61.2271 38.1358 61.136 38.5964C61.0449 39.057 60.9418 39.5159 60.8283 39.9714C60.7132 40.4269 60.5877 40.8789 60.4519 41.3275C60.3161 41.7778 60.1683 42.223 60.0102 42.6647C59.8521 43.1064 59.6836 43.5447 59.5032 43.9778C59.3244 44.4127 59.1336 44.8406 58.9325 45.2652C58.7315 45.6897 58.5218 46.1091 58.3 46.5233C58.0783 46.9375 57.848 47.3466 57.6057 47.7488C57.365 48.1509 57.1141 48.548 56.8529 48.9381C56.5916 49.3283 56.3218 49.7133 56.0416 50.0897C55.7615 50.4661 55.4727 50.8373 55.1754 51.2C54.878 51.5627 54.5704 51.9184 54.2558 52.2656C53.9413 52.6145 53.6165 52.9531 53.2847 53.2848C52.953 53.6183 52.6127 53.9414 52.2655 54.2559C51.9166 54.5722 51.5625 54.8781 51.1982 55.1755C50.8355 55.4745 50.466 55.7633 50.0896 56.0417C49.7115 56.3219 49.3282 56.5917 48.938 56.853C48.5479 57.1142 48.1508 57.3652 47.7486 57.6075C47.3447 57.8481 46.9374 58.0802 46.5232 58.3002C46.109 58.5219 45.6896 58.7333 45.265 58.9344C44.8405 59.1338 44.4108 59.3245 43.9777 59.505C43.5446 59.6838 43.1063 59.8522 42.6646 60.0103C42.2211 60.1702 41.776 60.3163 41.3274 60.452C40.8771 60.5895 40.425 60.715 39.9696 60.8284C39.5141 60.9419 39.0569 61.045 38.5963 61.1361C38.1357 61.2289 37.6733 61.308 37.2093 61.3784C36.7435 61.4472 36.2777 61.5039 35.8119 61.5503C35.3444 61.5967 34.8752 61.6311 34.4077 61.6534C33.9385 61.6758 33.4693 61.6878 33 61.6878C32.5291 61.6878 32.0599 61.6758 31.5924 61.6534C31.1232 61.6311 30.654 61.5967 30.1882 61.5503C29.7207 61.5039 29.2549 61.4472 28.7891 61.3784C28.325 61.308 27.8627 61.2289 27.4021 61.1361C26.9415 61.045 26.4843 60.9419 26.0288 60.8284C25.5733 60.715 25.1213 60.5895 24.671 60.452C24.2224 60.3163 23.7772 60.1702 23.3338 60.012C22.8921 59.8522 22.4555 59.6838 22.0207 59.505C21.5875 59.3245 21.1579 59.1338 20.7333 58.9344C20.3088 58.7333 19.8894 58.5219 19.4752 58.3002C19.061 58.0802 18.6536 57.8481 18.2515 57.6075C17.8475 57.3652 17.4522 57.1142 17.0604 56.853C16.6702 56.5917 16.2869 56.3219 15.9105 56.0417C15.5324 55.7633 15.1629 55.4745 14.8002 55.1755C14.4375 54.8781 14.0818 54.5722 13.7329 54.2559C13.3857 53.9414 13.0454 53.6183 12.7136 53.2848C12.3819 52.9531 12.0588 52.6145 11.7425 52.2656C11.428 51.9184 11.1204 51.5627 10.823 51.2C10.5257 50.8373 10.2369 50.4661 9.95676 50.0897C9.67661 49.7133 9.40676 49.3283 9.14551 48.9381C8.88598 48.548 8.63504 48.1509 8.3927 47.7488C8.15208 47.3466 7.92004 46.9375 7.69833 46.5233C7.47661 46.1091 7.26692 45.6897 7.06583 45.2652C6.86473 44.8406 6.67395 44.4127 6.4952 43.9778C6.31473 43.5447 6.14629 43.1064 5.98817 42.6647C5.83004 42.223 5.68223 41.7778 5.54645 41.3275C5.41067 40.8789 5.2852 40.4269 5.17176 39.9714C5.05661 39.5159 4.95348 39.057 4.86239 38.5964C4.77129 38.1358 4.69051 37.6734 4.62176 37.2094C4.55301 36.7453 4.49629 36.2795 4.44989 35.812C4.40348 35.3445 4.36911 34.877 4.34504 34.4078C4.3227 33.9386 4.31067 33.4694 4.31067 33.0002C4.31067 32.5309 4.3227 32.0617 4.34504 31.5925C4.36911 31.1233 4.40348 30.6558 4.44989 30.1883C4.49629 29.7208 4.55301 29.255 4.62176 28.7909C4.69051 28.3269 4.77129 27.8645 4.86239 27.4039C4.95348 26.9433 5.05661 26.4844 5.17176 26.0289C5.2852 25.5734 5.41067 25.1214 5.54645 24.6728C5.68223 24.2225 5.83004 23.7773 5.98817 23.3356C6.14629 22.8939 6.31473 22.4556 6.4952 22.0225C6.67395 21.5877 6.86473 21.1597 7.06583 20.7352C7.26692 20.3106 7.47661 19.8913 7.69833 19.477C7.92004 19.0628 8.15208 18.6538 8.3927 18.2516C8.63504 17.8494 8.88598 17.4523 9.14551 17.0622C9.40676 16.672 9.67661 16.287 9.95676 15.9106C10.2369 15.5342 10.5257 15.163 10.823 14.8003C11.1204 14.4377 11.428 14.0819 11.7425 13.7347C12.0588 13.3858 12.3819 13.0472 12.7136 12.7155C13.0454 12.382 13.3857 12.0589 13.7329 11.7444C14.0818 11.4281 14.4375 11.1222 14.8002 10.8248C15.1629 10.5258 15.5324 10.237 15.9105 9.95859C16.2869 9.67844 16.6702 9.40859 17.0604 9.14734C17.4522 8.88609 17.8475 8.63516 18.2515 8.39281C18.6536 8.15219 19.061 7.92016 19.4752 7.70016C19.8894 7.47844 20.3088 7.26703 20.7333 7.06594C21.1579 6.86656 21.5875 6.67578 22.0207 6.49531C22.4555 6.31656 22.8921 6.14813 23.3338 5.98828C23.7772 5.83016 24.2224 5.68406 24.671 5.54828C25.1213 5.41078 25.5733 5.28531 26.0288 5.17188C26.4843 5.05844 26.9415 4.95531 27.4021 4.86422C27.8627 4.77141 28.325 4.69234 28.7891 4.62188C29.2549 4.55313 29.7207 4.49641 30.1882 4.45C30.654 4.40359 31.1232 4.36922 31.5924 4.34688C32.0599 4.32453 32.5291 4.3125 33 4.3125C33.4693 4.3125 33.9385 4.32453 34.4077 4.34688C34.8752 4.36922 35.3444 4.40359 35.8119 4.45C36.2777 4.49641 36.7435 4.55313 37.2093 4.62188C37.6733 4.69234 38.1357 4.77141 38.5963 4.86422C39.0569 4.95531 39.5141 5.05844 39.9696 5.17188C40.425 5.28531 40.8771 5.41078 41.3274 5.54828C41.776 5.68406 42.2211 5.83016 42.6646 5.98828C43.1063 6.14813 43.5446 6.31656 43.9777 6.49531C44.4108 6.67578 44.8405 6.86656 45.265 7.06594C45.6896 7.26703 46.109 7.47844 46.5232 7.70016C46.9374 7.92016 47.3447 8.15219 47.7486 8.39281C48.1508 8.63516 48.5479 8.88609 48.938 9.14734C49.3282 9.40859 49.7115 9.67844 50.0896 9.95859C50.466 10.237 50.8355 10.5258 51.1982 10.8248C51.5625 11.1222 51.9166 11.4281 52.2655 11.7444C52.6127 12.0589 52.953 12.382 53.2847 12.7155C53.6165 13.0472 53.9413 13.3858 54.2558 13.7347C54.5704 14.0819 54.878 14.4377 55.1754 14.8003C55.4727 15.163 55.7615 15.5342 56.0416 15.9106C56.3218 16.287 56.5916 16.672 56.8529 17.0622C57.1141 17.4523 57.365 17.8494 57.6057 18.2516C57.848 18.6538 58.0783 19.0628 58.3 19.477C58.5218 19.8913 58.7315 20.3106 58.9325 20.7352C59.1336 21.1597 59.3244 21.5877 59.5032 22.0225C59.6836 22.4556 59.8521 22.8939 60.0102 23.3356C60.1683 23.7773 60.3161 24.2225 60.4519 24.6728C60.5877 25.1214 60.7132 25.5734 60.8283 26.0289C60.9418 26.4844 61.0449 26.9433 61.136 27.4039C61.2271 27.8645 61.3079 28.3269 61.3766 28.7909C61.4454 29.255 61.5038 29.7208 61.5485 30.1883C61.5949 30.6558 61.6293 31.1233 61.6533 31.5925C61.6757 32.0617 61.6877 32.5309 61.6877 33.0002Z" fill="#FFBC5F"/>
<path fill-rule="evenodd" clip-rule="evenodd" d="M31.7454 61.6656C16.4777 61.0056 4.31067 48.4226 4.31067 33.0003C4.31067 17.5779 16.4777 4.99496 31.7454 4.33496C46.9907 4.99496 59.1577 17.5779 59.1577 33.0003C59.1577 48.4226 46.9907 61.0056 31.7454 61.6656Z" fill="#FFAD39"/>
<path fill-rule="evenodd" clip-rule="evenodd" d="M52.1301 37.124C51.8212 37.124 51.6261 36.8151 51.7094 36.5631C52.2134 34.6829 51.6809 33.4207 52.4939 33.4207C52.7481 33.4207 52.9431 33.6442 52.9431 33.87C52.9146 34.8232 52.8029 35.7764 52.6079 36.7296C52.5224 36.9553 52.3274 37.124 52.1301 37.124ZM51.1769 26.3253C50.9797 26.3253 50.811 26.2113 50.7277 26.0448C50.3902 25.2033 49.9432 24.3049 49.494 23.4634C45.1749 16.0305 36.3659 12.3841 28.0652 14.5996C26.494 14.9918 24.9513 15.6382 23.5204 16.4797C22.9594 16.7602 22.5672 15.9735 23.0427 15.693C24.5591 14.7968 26.242 14.124 27.8395 13.7033C36.5061 11.374 45.7907 15.189 50.307 23.0142C50.7847 23.8557 51.2317 24.7541 51.5977 25.6503C51.7094 25.9878 51.4574 26.3253 51.1769 26.3253ZM17.0122 22.6504C16.872 22.8455 16.7317 22.9024 16.5652 22.9024C16.1992 22.9024 15.9757 22.4817 16.1707 22.1442C16.9289 21.0508 17.6301 20.126 18.4146 19.3394C18.8639 18.8923 19.4818 19.5081 19.1159 19.9573C18.4146 20.7418 17.7134 21.6118 17.0122 22.6504ZM14.9085 27.0528C13.1993 32.2155 13.7603 37.8516 16.5082 42.5366C23.5489 54.6545 40.9676 55.439 48.933 43.3496C49.2968 42.8171 50.0835 43.2948 49.7745 43.8558C48.0061 46.5467 45.7359 48.7073 42.9858 50.307C39.8172 52.1017 36.3943 52.9716 33 52.9716C26.128 52.9716 19.37 49.3801 15.6667 42.9858C12.8334 38.0773 12.2176 32.1585 14.0123 26.8008C14.2073 26.185 15.0773 26.5203 14.9085 27.0528ZM10 32.9715C10 45.6789 20.3233 56 32.9737 56C45.6789 56 56 45.6789 56 32.9715C56 20.2663 45.6789 10 32.9737 10C20.3233 10 10 20.3211 10 32.9715Z" fill="#F5F6FF"/>
<path d="M31.5 25.5H34.5C34.5 25.1022 34.342 24.7206 34.0607 24.4393C33.7794 24.158 33.3978 24 33 24C32.6022 24 32.2206 24.158 31.9393 24.4393C31.658 24.7206 31.5 25.1022 31.5 25.5ZM30 25.5C30 24.7044 30.3161 23.9413 30.8787 23.3787C31.4413 22.8161 32.2044 22.5 33 22.5C33.7956 22.5 34.5587 22.8161 35.1213 23.3787C35.6839 23.9413 36 24.7044 36 25.5H42C42.1989 25.5 42.3897 25.579 42.5303 25.7197C42.671 25.8603 42.75 26.0511 42.75 26.25C42.75 26.4489 42.671 26.6397 42.5303 26.7803C42.3897 26.921 42.1989 27 42 27H41.154L39.3465 40.257C39.2239 41.1554 38.78 41.979 38.0968 42.5752C37.4137 43.1714 36.5377 43.5 35.631 43.5H30.369C29.4623 43.5 28.5863 43.1714 27.9032 42.5752C27.22 41.979 26.7761 41.1554 26.6535 40.257L24.846 27H24C23.8011 27 23.6103 26.921 23.4697 26.7803C23.329 26.6397 23.25 26.4489 23.25 26.25C23.25 26.0511 23.329 25.8603 23.4697 25.7197C23.6103 25.579 23.8011 25.5 24 25.5H30ZM31.5 30.75C31.5 30.5511 31.421 30.3603 31.2803 30.2197C31.1397 30.079 30.9489 30 30.75 30C30.5511 30 30.3603 30.079 30.2197 30.2197C30.079 30.3603 30 30.5511 30 30.75V38.25C30 38.4489 30.079 38.6397 30.2197 38.7803C30.3603 38.921 30.5511 39 30.75 39C30.9489 39 31.1397 38.921 31.2803 38.7803C31.421 38.6397 31.5 38.4489 31.5 38.25V30.75ZM35.25 30C35.4489 30 35.6397 30.079 35.7803 30.2197C35.921 30.3603 36 30.5511 36 30.75V38.25C36 38.4489 35.921 38.6397 35.7803 38.7803C35.6397 38.921 35.4489 39 35.25 39C35.0511 39 34.8603 38.921 34.7197 38.7803C34.579 38.6397 34.5 38.4489 34.5 38.25V30.75C34.5 30.5511 34.579 30.3603 34.7197 30.2197C34.8603 30.079 35.0511 30 35.25 30ZM28.14 40.0545C28.2136 40.5934 28.48 41.0875 28.8898 41.4451C29.2996 41.8028 29.8251 41.9999 30.369 42H35.631C36.1752 42.0003 36.7011 41.8033 37.1112 41.4456C37.5213 41.0879 37.7879 40.5937 37.8615 40.0545L39.6405 27H26.3595L28.14 40.0545Z" fill="#FCA311"/>
</svg>
