<svg width="18" height="20" viewBox="0 0 18 20" fill="none" xmlns="http://www.w3.org/2000/svg">
<path id="Vector" d="M18 8.97692C18 9.68161 17.9157 10.3713 17.7471 11.0459C17.5939 11.7205 17.3486 12.3332 17.0115 12.885C16.6744 13.4216 16.2606 13.8584 15.7701 14.1953C15.2797 14.5171 14.6973 14.6781 14.023 14.6781C13.318 14.6781 12.7586 14.4791 12.3448 14.0803C11.9463 13.6666 11.7011 13.1988 11.6092 12.6781H11.4943C11.2184 13.2448 10.8123 13.7205 10.2759 14.1033C9.73943 14.4862 9.06516 14.6781 8.25287 14.6781C7.08815 14.6781 6.18391 14.2872 5.54023 13.5056C4.91185 12.724 4.5977 11.6896 4.5977 10.4022C4.5977 9.39072 4.7969 8.5021 5.1954 7.73553C5.5939 6.95392 6.15322 6.3412 6.87356 5.89646C7.60919 5.45172 8.47507 5.22979 9.47126 5.22979C10.1456 5.22979 10.8046 5.29081 11.4483 5.41371C12.1073 5.52069 12.6207 5.64358 12.9885 5.78151L12.7586 10.4482C12.7433 10.7241 12.7356 10.923 12.7356 11.0459C12.7356 11.1529 12.7356 11.2298 12.7356 11.2758C12.7356 12.0724 12.8736 12.6011 13.1494 12.862C13.4406 13.1228 13.7778 13.2528 14.1609 13.2528C14.636 13.2528 15.0345 13.0609 15.3563 12.6781C15.6935 12.2793 15.9463 11.7585 16.1149 11.1149C16.2989 10.4561 16.3908 9.73555 16.3908 8.95394C16.3908 7.52865 16.0996 6.32529 15.5172 5.34474C14.9502 4.34828 14.1609 3.58965 13.1494 3.06887C12.1532 2.5481 11.0192 2.28726 9.74712 2.28726C8.44447 2.28726 7.28736 2.49416 6.27586 2.90795C5.26437 3.32174 4.41379 3.90442 3.72414 4.65509C3.04978 5.40575 2.53643 6.29522 2.18391 7.32174C1.83139 8.33324 1.65517 9.45171 1.65517 10.6781C1.65517 12.1803 1.92334 13.4597 2.45977 14.5171C2.9962 15.5596 3.77781 16.3562 4.8046 16.908C5.84677 17.4447 7.11874 17.7125 8.62069 17.7125C9.55552 17.7125 10.4445 17.6056 11.2874 17.3907C12.1456 17.1918 12.9042 16.969 13.5632 16.724V18.2873C12.9042 18.5631 12.1609 18.7851 11.3333 18.9539C10.521 19.1378 9.61689 19.2298 8.62069 19.2298C6.81229 19.2298 5.26437 18.8929 3.97701 18.2183C2.68966 17.5437 1.70115 16.5782 1.01149 15.3217C0.337136 14.0494 0 12.5251 0 10.747C0 9.32174 0.222194 8.00345 0.666668 6.79302C1.11114 5.56667 1.75482 4.50919 2.5977 3.62059C3.44058 2.71608 4.45977 2.01936 5.65517 1.52864C6.86587 1.02289 8.22988 0.77002 9.74712 0.77002C10.9425 0.77002 12.0383 0.96188 13.0345 1.34473C14.046 1.71254 14.9195 2.25632 15.6552 2.97692C16.4061 3.6816 16.9808 4.54012 17.3793 5.55162C17.7931 6.56311 18 7.7046 18 8.97692ZM6.3908 10.4482C6.3908 11.4287 6.5824 12.1414 6.96552 12.5861C7.36401 13.0309 7.89275 13.2528 8.55172 13.2528C9.40999 13.2528 10.023 12.9309 10.3908 12.2873C10.7739 11.6436 10.9962 10.808 11.0575 9.7815L11.1954 6.90794C10.9962 6.84693 10.7433 6.79302 10.4368 6.74704C10.1302 6.70106 9.81609 6.67807 9.49425 6.67807C8.74332 6.67807 8.13793 6.86197 7.67816 7.22979C7.21839 7.5976 6.88886 8.0724 6.68966 8.65507C6.49045 9.22183 6.3908 9.81954 6.3908 10.4482Z" fill="#626262"/>
</svg>
