<svg width="25" height="25" viewBox="0 0 25 25" fill="none" xmlns="http://www.w3.org/2000/svg">
<g id="vuesax/linear/empty-wallet">
<g id="Group">
<path id="Vector" d="M18.2065 14.05C17.7865 14.46 17.5465 15.05 17.6065 15.68C17.6965 16.76 18.6865 17.55 19.7665 17.55H21.6665V18.74C21.6665 20.81 19.9765 22.5 17.9065 22.5H6.4265C4.3565 22.5 2.6665 20.81 2.6665 18.74V12.01C2.6665 9.94001 4.3565 8.25 6.4265 8.25H17.9065C19.9765 8.25 21.6665 9.94001 21.6665 12.01V13.45H19.6465C19.0865 13.45 18.5765 13.67 18.2065 14.05Z" stroke="#848484" stroke-width="1.5" stroke-linecap="round" stroke-linejoin="round"/>
<path id="Vector_2" d="M2.6665 12.9098V8.33986C2.6665 7.14986 3.3965 6.08982 4.5065 5.66982L12.4465 2.66982C13.6865 2.19982 15.0165 3.11985 15.0165 4.44985V8.24983" stroke="#848484" stroke-width="1.5" stroke-linecap="round" stroke-linejoin="round"/>
</g>
<path id="Vector_3" d="M22.7253 14.4702V16.5302C22.7253 17.0802 22.2853 17.5302 21.7253 17.5502H19.7653C18.6853 17.5502 17.6953 16.7602 17.6053 15.6802C17.5453 15.0502 17.7853 14.4602 18.2053 14.0502C18.5753 13.6702 19.0853 13.4502 19.6453 13.4502H21.7253C22.2853 13.4702 22.7253 13.9202 22.7253 14.4702Z" stroke="#848484" stroke-width="1.5" stroke-linecap="round" stroke-linejoin="round"/>
<path id="Vector_4" d="M7.1665 12.5H14.1665" stroke="#848484" stroke-width="1.5" stroke-linecap="round" stroke-linejoin="round"/>
</g>
</svg>
