<svg width="24" height="23" viewBox="0 0 24 23" fill="none" xmlns="http://www.w3.org/2000/svg">
<path d="M17.25 0.850708C16.2243 0.860631 15.2152 1.11065 14.3035 1.58073C13.3918 2.05081 12.6029 2.72788 12 3.55771C11.397 2.72788 10.6081 2.05081 9.69644 1.58073C8.78476 1.11065 7.77565 0.860631 6.74996 0.850708C4.89173 0.924914 3.13848 1.73189 1.87358 3.09517C0.608672 4.45846 -0.0649657 6.26713 -4.03235e-05 8.12571C-4.03235e-05 12.6777 4.67396 17.5507 8.59996 20.8377C9.55329 21.6393 10.7589 22.0788 12.0045 22.0788C13.25 22.0788 14.4556 21.6393 15.409 20.8377C19.331 17.5507 24.009 12.6777 24.009 8.12571C24.0738 6.26563 23.399 4.45564 22.1322 3.0921C20.8653 1.72856 19.1098 0.922596 17.25 0.850708ZM13.477 18.5387C13.0634 18.8869 12.5401 19.0779 11.9995 19.0779C11.4588 19.0779 10.9355 18.8869 10.522 18.5387C5.74196 14.5307 2.99996 10.7357 2.99996 8.12571C2.9362 7.06292 3.29424 6.01789 3.99634 5.21749C4.69844 4.4171 5.68793 3.92596 6.74996 3.85071C7.81199 3.92596 8.80148 4.4171 9.50358 5.21749C10.2057 6.01789 10.5637 7.06292 10.5 8.12571C10.5 8.52353 10.658 8.90506 10.9393 9.18637C11.2206 9.46767 11.6021 9.62571 12 9.62571C12.3978 9.62571 12.7793 9.46767 13.0606 9.18637C13.3419 8.90506 13.5 8.52353 13.5 8.12571C13.4362 7.06292 13.7942 6.01789 14.4963 5.21749C15.1984 4.4171 16.1879 3.92596 17.25 3.85071C18.312 3.92596 19.3015 4.4171 20.0036 5.21749C20.7057 6.01789 21.0637 7.06292 21 8.12571C21 10.7357 18.258 14.5307 13.477 18.5387Z" fill="#3C2F2F"/>
</svg>
