<svg width="32" height="33" viewBox="0 0 32 33" fill="none" xmlns="http://www.w3.org/2000/svg">
<g id="filter">
<path id="Vector" d="M5.33333 4.5H26.6667C27.0203 4.5 27.3594 4.64048 27.6095 4.89052C27.8595 5.14057 28 5.47971 28 5.83333V7.948C27.9999 8.30159 27.8594 8.64068 27.6093 8.89067L19.056 17.4427C18.8064 17.6929 18.6664 18.0319 18.6667 18.3853V26.792C18.6667 26.9947 18.6205 27.1947 18.5316 27.3768C18.4427 27.559 18.3134 27.7184 18.1536 27.8431C17.9938 27.9678 17.8077 28.0544 17.6095 28.0964C17.4112 28.1384 17.2059 28.1346 17.0093 28.0853L14.3427 27.4187C14.0543 27.3464 13.7984 27.1799 13.6155 26.9456C13.4327 26.7113 13.3333 26.4226 13.3333 26.1253V18.3853C13.3333 18.0317 13.1927 17.6927 12.9427 17.4427L4.38933 8.89067C4.13976 8.64046 3.99972 8.3014 4 7.948V5.83333C4 5.47971 4.14048 5.14057 4.39052 4.89052C4.64057 4.64048 4.97971 4.5 5.33333 4.5Z" fill="white"/>
</g>
</svg>
