<svg width="22" height="22" viewBox="0 0 22 22" fill="none" xmlns="http://www.w3.org/2000/svg">
<g id="gis:flag-finish-b-o" clip-path="url(#clip0_383_17531)">
<path id="Vector" d="M11 0C10.7958 0 10.5999 0.0811248 10.4555 0.225528C10.3111 0.369931 10.23 0.565783 10.23 0.77V18.37C10.23 18.5742 10.3111 18.7701 10.4555 18.9145C10.5999 19.0589 10.7958 19.14 11 19.14C11.2042 19.14 11.4 19.0589 11.5445 18.9145C11.6889 18.7701 11.77 18.5742 11.77 18.37V10.34H21.23C21.4342 10.34 21.6301 10.2589 21.7745 10.1145C21.9189 9.97007 22 9.77422 22 9.57V0.77C22 0.565783 21.9189 0.369931 21.7745 0.225528C21.6301 0.0811248 21.4342 0 21.23 0H11.11C11.0913 5.64628e-05 11.0727 0.00079028 11.0541 0.0022C11.0361 0.000832196 11.018 9.84093e-05 11 0ZM14.036 1.54H16.192V3.1746H18.348V1.54H20.46V3.1746H18.348V5.33038H20.46V7.48638H18.348V8.8H16.192V7.4866H14.036V8.8H11.88V7.4866H14.036V5.33038H11.88V3.17438H14.036V1.54ZM14.036 3.1746V5.33038H16.192V3.17438H14.036V3.1746ZM16.192 5.33038V7.4866L18.348 7.48638V5.33038H16.192Z" fill="#848484"/>
<path id="Vector_2" d="M8.3609 16.8942C6.03022 17.2238 4.40002 18.0118 4.40002 19.1715C4.40002 20.7335 7.12384 22 11 22C14.8762 22 17.6 20.7337 17.6 19.1715C17.6 18.0116 15.9698 17.2238 13.6394 16.8945L13.3164 17.4442C15.0731 17.6878 16.28 18.2002 16.28 18.7944C16.28 19.6275 13.9161 20.3029 11 20.3029C8.08392 20.3029 5.72002 19.6275 5.72002 18.7944C5.7198 18.2021 6.91902 17.6904 8.681 17.4458C8.57452 17.2619 8.4676 17.0784 8.3609 16.8942Z" fill="#848484"/>
</g>
<defs>
<clipPath id="clip0_383_17531">
<rect width="22" height="22" fill="white"/>
</clipPath>
</defs>
</svg>
