<svg width="24" height="24" viewBox="0 0 24 24" fill="none" xmlns="http://www.w3.org/2000/svg">
<g id="Group">
<g id="Clip path group">
<mask id="mask0_383_33537" style="mask-type:luminance" maskUnits="userSpaceOnUse" x="0" y="0" width="24" height="24">
<g id="B">
<path id="Vector" d="M23.7209 9.81818H12.2791V14.4545H18.8651C18.2512 17.4 15.6837 19.0909 12.2791 19.0909C8.26047 19.0909 5.02326 15.9273 5.02326 12C5.02326 8.07273 8.26047 4.90909 12.2791 4.90909C14.0093 4.90909 15.5721 5.50909 16.8 6.49091L20.3721 3C18.1953 1.14545 15.4047 0 12.2791 0C5.46977 0 0 5.34545 0 12C0 18.6545 5.46977 24 12.2791 24C18.4186 24 24 19.6364 24 12C24 11.2909 23.8884 10.5273 23.7209 9.81818Z" fill="white"/>
</g>
</mask>
<g mask="url(#mask0_383_33537)">
<path id="Vector_2" d="M-1.11621 19.091V4.90918L8.37216 12.0001L-1.11621 19.091Z" fill="#FBBC05"/>
</g>
</g>
<g id="Clip path group_2">
<mask id="mask1_383_33537" style="mask-type:luminance" maskUnits="userSpaceOnUse" x="0" y="0" width="24" height="24">
<g id="B_2">
<path id="Vector_3" d="M23.7209 9.81818H12.2791V14.4545H18.8651C18.2512 17.4 15.6837 19.0909 12.2791 19.0909C8.26047 19.0909 5.02326 15.9273 5.02326 12C5.02326 8.07273 8.26047 4.90909 12.2791 4.90909C14.0093 4.90909 15.5721 5.50909 16.8 6.49091L20.3721 3C18.1953 1.14545 15.4047 0 12.2791 0C5.46977 0 0 5.34545 0 12C0 18.6545 5.46977 24 12.2791 24C18.4186 24 24 19.6364 24 12C24 11.2909 23.8884 10.5273 23.7209 9.81818Z" fill="white"/>
</g>
</mask>
<g mask="url(#mask1_383_33537)">
<path id="Vector_4" d="M-1.11621 4.90918L8.37216 12.0001L12.2791 8.67282L25.6745 6.54554V-1.09082H-1.11621V4.90918Z" fill="#EA4335"/>
</g>
</g>
<g id="Clip path group_3">
<mask id="mask2_383_33537" style="mask-type:luminance" maskUnits="userSpaceOnUse" x="0" y="0" width="24" height="24">
<g id="B_3">
<path id="Vector_5" d="M23.7209 9.81818H12.2791V14.4545H18.8651C18.2512 17.4 15.6837 19.0909 12.2791 19.0909C8.26047 19.0909 5.02326 15.9273 5.02326 12C5.02326 8.07273 8.26047 4.90909 12.2791 4.90909C14.0093 4.90909 15.5721 5.50909 16.8 6.49091L20.3721 3C18.1953 1.14545 15.4047 0 12.2791 0C5.46977 0 0 5.34545 0 12C0 18.6545 5.46977 24 12.2791 24C18.4186 24 24 19.6364 24 12C24 11.2909 23.8884 10.5273 23.7209 9.81818Z" fill="white"/>
</g>
</mask>
<g mask="url(#mask2_383_33537)">
<path id="Vector_6" d="M-1.11621 19.091L15.628 6.54554L20.0373 7.091L25.6745 -1.09082V25.091H-1.11621V19.091Z" fill="#34A853"/>
</g>
</g>
<g id="Clip path group_4">
<mask id="mask3_383_33537" style="mask-type:luminance" maskUnits="userSpaceOnUse" x="0" y="0" width="24" height="24">
<g id="B_4">
<path id="Vector_7" d="M23.7209 9.81818H12.2791V14.4545H18.8651C18.2512 17.4 15.6837 19.0909 12.2791 19.0909C8.26047 19.0909 5.02326 15.9273 5.02326 12C5.02326 8.07273 8.26047 4.90909 12.2791 4.90909C14.0093 4.90909 15.5721 5.50909 16.8 6.49091L20.3721 3C18.1953 1.14545 15.4047 0 12.2791 0C5.46977 0 0 5.34545 0 12C0 18.6545 5.46977 24 12.2791 24C18.4186 24 24 19.6364 24 12C24 11.2909 23.8884 10.5273 23.7209 9.81818Z" fill="white"/>
</g>
</mask>
<g mask="url(#mask3_383_33537)">
<path id="Vector_8" d="M25.6745 25.091L8.37221 12.0001L6.13965 10.3637L25.6745 4.90918V25.091Z" fill="#4285F4"/>
</g>
</g>
</g>
</svg>
