<svg width="32" height="32" viewBox="0 0 32 32" fill="none" xmlns="http://www.w3.org/2000/svg">
<g id="&#217;&#133;&#216;&#179;&#216;&#167;&#216;&#185;&#216;&#175;&#216;&#169;">
<path id="Vector" d="M28 16C28 22.6274 22.6274 28 16 28C9.37258 28 4 22.6274 4 16C4 9.37258 9.37258 4 16 4C22.6274 4 28 9.37258 28 16Z" fill="#3251FF" stroke="white" stroke-width="2"/>
<g id="Vector_2">
<path d="M16 11.6744C15.0532 11.6744 14.2857 12.2367 14.2857 12.9302C14.2857 13.3926 13.774 13.7674 13.1429 13.7674C12.5117 13.7674 12 13.3926 12 12.9302C12 11.3119 13.7909 10 16 10C18.2091 10 20 11.3119 20 12.9302C20 13.7237 19.5679 14.445 18.8693 14.9719C18.7287 15.0779 18.5946 15.176 18.4667 15.2696L18.4666 15.2697L18.4666 15.2697C18.1377 15.5104 17.8496 15.7213 17.5968 15.9593C17.263 16.2734 17.1429 16.5043 17.1429 16.6977V17.5349C17.1429 17.9973 16.6312 18.3721 16 18.3721C15.3688 18.3721 14.8571 17.9973 14.8571 17.5349V16.6977C14.8571 15.9663 15.3219 15.3743 15.793 14.9308C16.1416 14.6027 16.5797 14.2824 16.9353 14.0225C17.0425 13.9441 17.1423 13.8711 17.2298 13.8051C17.5308 13.5782 17.7143 13.2707 17.7143 12.9302C17.7143 12.2367 16.9468 11.6744 16 11.6744Z" fill="white"/>
<path d="M16 22C16.8416 22 17.5238 21.5002 17.5238 20.8837C17.5238 20.2672 16.8416 19.7674 16 19.7674C15.1584 19.7674 14.4762 20.2672 14.4762 20.8837C14.4762 21.5002 15.1584 22 16 22Z" fill="white"/>
</g>
</g>
</svg>
