<svg width="20" height="20" viewBox="0 0 20 20" fill="none" xmlns="http://www.w3.org/2000/svg">
<g id="teenyicons:id-outline" clip-path="url(#clip0_383_33875)">
<path id="Vector" d="M2.66667 16.6665V17.3332H4V16.6665H2.66667ZM9.33333 16.6665V17.3332H10.6667V16.6665H9.33333ZM4 16.6665V15.9998H2.66667V16.6665H4ZM9.33333 15.9998V16.6665H10.6667V15.9998H9.33333ZM6.66667 13.3332C7.37391 13.3332 8.05219 13.6141 8.55229 14.1142C9.05238 14.6143 9.33333 15.2926 9.33333 15.9998H10.6667C10.6667 14.939 10.2452 13.9216 9.49509 13.1714C8.74495 12.4213 7.72753 11.9998 6.66667 11.9998V13.3332ZM4 15.9998C4 15.2926 4.28095 14.6143 4.78105 14.1142C5.28115 13.6141 5.95942 13.3332 6.66667 13.3332V11.9998C5.6058 11.9998 4.58839 12.4213 3.83824 13.1714C3.08809 13.9216 2.66667 14.939 2.66667 15.9998H4ZM6.66667 5.33317C5.95942 5.33317 5.28115 5.61412 4.78105 6.11422C4.28095 6.61432 4 7.29259 4 7.99984H5.33333C5.33333 7.64622 5.47381 7.30708 5.72386 7.05703C5.97391 6.80698 6.31305 6.6665 6.66667 6.6665V5.33317ZM9.33333 7.99984C9.33333 7.29259 9.05238 6.61432 8.55229 6.11422C8.05219 5.61412 7.37391 5.33317 6.66667 5.33317V6.6665C7.02029 6.6665 7.35943 6.80698 7.60948 7.05703C7.85952 7.30708 8 7.64622 8 7.99984H9.33333ZM6.66667 10.6665C7.37391 10.6665 8.05219 10.3856 8.55229 9.88546C9.05238 9.38536 9.33333 8.70708 9.33333 7.99984H8C8 8.35346 7.85952 8.6926 7.60948 8.94265C7.35943 9.19269 7.02029 9.33317 6.66667 9.33317V10.6665ZM6.66667 9.33317C6.31305 9.33317 5.97391 9.19269 5.72386 8.94265C5.47381 8.6926 5.33333 8.35346 5.33333 7.99984H4C4 8.70708 4.28095 9.38536 4.78105 9.88546C5.28115 10.3856 5.95942 10.6665 6.66667 10.6665V9.33317ZM2 3.99984H18V2.6665H2V3.99984ZM18.6667 4.6665V15.3332H20V4.6665H18.6667ZM18 15.9998H2V17.3332H18V15.9998ZM1.33333 15.3332V4.6665H0V15.3332H1.33333ZM2 15.9998C1.82319 15.9998 1.65362 15.9296 1.5286 15.8046C1.40357 15.6796 1.33333 15.51 1.33333 15.3332H0C0 15.8636 0.210714 16.3723 0.585786 16.7474C0.960859 17.1225 1.46957 17.3332 2 17.3332V15.9998ZM18.6667 15.3332C18.6667 15.51 18.5964 15.6796 18.4714 15.8046C18.3464 15.9296 18.1768 15.9998 18 15.9998V17.3332C18.5304 17.3332 19.0391 17.1225 19.4142 16.7474C19.7893 16.3723 20 15.8636 20 15.3332H18.6667ZM18 3.99984C18.1768 3.99984 18.3464 4.07008 18.4714 4.1951C18.5964 4.32012 18.6667 4.48969 18.6667 4.6665H20C20 4.13607 19.7893 3.62736 19.4142 3.25229C19.0391 2.87722 18.5304 2.6665 18 2.6665V3.99984ZM2 2.6665C1.46957 2.6665 0.960859 2.87722 0.585786 3.25229C0.210714 3.62736 0 4.13607 0 4.6665H1.33333C1.33333 4.48969 1.40357 4.32012 1.5286 4.1951C1.65362 4.07008 1.82319 3.99984 2 3.99984V2.6665ZM12 7.99984H16V6.6665H12V7.99984ZM12 11.9998H16V10.6665H12V11.9998Z" fill="#626262"/>
</g>
<defs>
<clipPath id="clip0_383_33875">
<rect width="20" height="20" fill="white"/>
</clipPath>
</defs>
</svg>
