<svg width="16" height="20" viewBox="0 0 16 20" fill="none" xmlns="http://www.w3.org/2000/svg">
<g id="Vector">
<path id="Vector_2" d="M14.0952 7.39927V6.25669C14.0952 4.63975 13.4531 3.08962 12.31 1.94704C11.1669 0.803506 9.61656 0.161621 8 0.161621C6.38344 0.161621 4.83313 0.803506 3.68998 1.94704C2.54692 3.08962 1.90475 4.63975 1.90475 6.25669V7.39927H0V11.8388C0 16.2501 3.5888 19.8388 8 19.8388C12.4112 19.8388 16 16.2501 16 11.8388V7.39927H14.0952ZM3.42861 6.25669C3.42861 5.04446 3.91021 3.88117 4.76753 3.02375C5.62485 2.16728 6.78758 1.6854 8 1.6854C9.21242 1.6854 10.3752 2.16728 11.2325 3.02375C12.0898 3.88117 12.5714 5.04446 12.5714 6.25669V7.39927H3.42861V6.25669ZM14.4762 11.8388C14.4762 15.4096 11.5709 18.3151 8 18.3151C4.42908 18.3151 1.52376 15.4096 1.52376 11.8388V8.92305H14.4762V11.8388Z" fill="#626262"/>
</g>
</svg>
