<svg width="42" height="77" viewBox="0 0 42 77" fill="none" xmlns="http://www.w3.org/2000/svg">
<g id="Asset 18 2">
<g id="Layer 2">
<g id="Layer 4">
<path id="Vector" d="M31.356 21.5288C31.2919 21.6218 31.218 21.7147 31.144 21.8077C29.9185 23.3308 28.3655 24.5626 26.5986 25.4132C24.8317 26.2637 22.8956 26.7115 20.932 26.7237C18.9684 26.7359 17.0268 26.3122 15.2493 25.4836C13.4719 24.6551 11.9035 23.4426 10.6588 21.9349C10.5849 21.842 10.506 21.7539 10.4419 21.6609C6.45904 24.1976 3.5281 28.0716 2.18427 32.5757C0.840438 37.0798 1.17336 41.9134 3.12226 46.1941L5.45864 50.0399L11.6545 60.2416L15.7012 55.4221C15.7012 55.4221 18.6587 59.3365 20.9606 60.638C23.2624 61.9395 27.2106 55.4221 27.2106 55.4221C28.3082 56.7269 29.1609 57.6761 29.7688 58.2698C29.8575 58.3628 30.8433 59.0673 30.8433 59.0673C30.8433 59.0673 30.7793 59.175 30.7497 59.2288C30.2568 60.1829 36.4822 50.1231 36.4822 50.1231L38.8777 46.2087C40.8427 41.8876 41.1634 37.006 39.7804 32.4682C38.3974 27.9304 35.4044 24.0439 31.356 21.5288ZM20.8472 46.4827C19.1815 46.4827 17.5533 45.9926 16.1682 45.0742C14.7832 44.1558 13.7034 42.8504 13.0656 41.323C12.4277 39.7956 12.2603 38.1148 12.5846 36.493C12.9088 34.8712 13.7101 33.3812 14.8872 32.2113C16.0643 31.0415 17.5644 30.2443 19.1978 29.9206C20.8312 29.5968 22.5246 29.761 24.064 30.3924C25.6034 31.0238 26.9197 32.0941 27.8465 33.4679C28.7733 34.8418 29.269 36.4575 29.271 38.1109C29.2723 39.2099 29.0553 40.2983 28.6326 41.3139C28.2098 42.3296 27.5895 43.2526 26.8072 44.0301C26.0248 44.8076 25.0958 45.4244 24.0731 45.8453C23.0505 46.2661 21.9543 46.4827 20.8472 46.4827Z" fill="url(#paint0_linear_476_13260)"/>
<path id="Vector_2" d="M30.8533 59.0964C29.7656 60.9785 28.6796 62.8623 27.5952 64.7477L21.0248 76.1336L13.9565 64.048C13.1974 62.7905 12.4334 61.5428 11.6743 60.2902L15.7211 55.4658C15.7211 55.4658 18.6785 59.3802 20.9804 60.6817C23.2823 61.9832 27.2305 55.4658 27.2305 55.4658C28.3296 56.7576 29.2021 57.7117 29.7886 58.3184C29.8675 58.3918 30.8533 59.0964 30.8533 59.0964Z" fill="url(#paint1_linear_476_13260)"/>
<path id="Vector_3" d="M16.9631 69.1908L19.5558 67.0869L21.1528 68.9119L23.1491 66.4019L25.032 69.1908L21.0247 76.1339L16.9631 69.1908Z" fill="#11110B"/>
<path id="Vector_4" d="M31.972 13.3722C31.972 15.5563 31.3195 17.6915 30.0971 19.5075C28.8747 21.3236 27.1372 22.739 25.1044 23.5749C23.0716 24.4107 20.8347 24.6294 18.6767 24.2033C16.5187 23.7772 14.5364 22.7254 12.9806 21.181C11.4247 19.6365 10.3652 17.6688 9.93593 15.5266C9.50668 13.3844 9.72699 11.164 10.569 9.14606C11.411 7.12816 12.8369 5.40342 14.6664 4.18997C16.4959 2.97651 18.6468 2.32883 20.8471 2.32883C22.3106 2.31973 23.7613 2.59917 25.1152 3.15092C26.4691 3.70268 27.6991 4.51578 28.734 5.54307C29.7689 6.57035 30.588 7.79138 31.1438 9.13533C31.6997 10.4793 31.9812 11.9194 31.972 13.3722Z" fill="url(#paint2_linear_476_13260)"/>
</g>
</g>
</g>
<defs>
<linearGradient id="paint0_linear_476_13260" x1="1.37256" y1="21.5288" x2="40.6536" y2="60.7827" gradientUnits="userSpaceOnUse">
<stop stop-color="#6B73FF"/>
<stop offset="1" stop-color="#000DFF"/>
</linearGradient>
<linearGradient id="paint1_linear_476_13260" x1="21.3325" y1="55.501" x2="21.3191" y2="75.0252" gradientUnits="userSpaceOnUse">
<stop stop-color="#EAEAEA"/>
<stop offset="0.365281" stop-color="#CBCBCB" stop-opacity="0.69"/>
<stop offset="0.983333" stop-color="#263238" stop-opacity="0.34"/>
</linearGradient>
<linearGradient id="paint2_linear_476_13260" x1="9.72217" y1="2.32861" x2="31.8085" y2="24.5781" gradientUnits="userSpaceOnUse">
<stop stop-color="#6B73FF"/>
<stop offset="1" stop-color="#000DFF"/>
</linearGradient>
</defs>
</svg>
