<svg width="24" height="24" viewBox="0 0 24 24" fill="none" xmlns="http://www.w3.org/2000/svg">
<g id="octicon:person-16">
<path id="Vector" d="M15.8416 12.1096C17.3184 12.8076 18.5776 13.8941 19.4844 15.2527C20.3912 16.6113 20.9115 18.191 20.9896 19.8226C20.9999 19.972 20.9802 20.1221 20.9318 20.2638C20.8833 20.4056 20.807 20.5363 20.7073 20.6481C20.6077 20.76 20.4867 20.8509 20.3514 20.9153C20.2162 20.9798 20.0694 21.0166 19.9198 21.0236C19.7701 21.0306 19.6206 21.0077 19.4799 20.9561C19.3392 20.9045 19.2103 20.8253 19.1006 20.7232C18.991 20.6211 18.9028 20.4981 18.8413 20.3615C18.7799 20.2249 18.7463 20.0773 18.7426 19.9276C18.6608 18.1943 17.9147 16.5592 16.6592 15.3615C15.4037 14.1639 13.7352 13.4957 12.0001 13.4957C10.265 13.4957 8.59646 14.1639 7.34095 15.3615C6.08544 16.5592 5.33937 18.1943 5.2576 19.9276C5.23739 20.2209 5.10311 20.4947 4.88352 20.6903C4.66394 20.8859 4.37649 20.9878 4.08274 20.974C3.78899 20.9603 3.5123 20.8321 3.3119 20.6169C3.11151 20.4017 3.00336 20.1165 3.0106 19.8226C3.08839 18.1911 3.60839 16.6115 4.51495 15.2528C5.4215 13.8942 6.68048 12.8077 8.1571 12.1096C7.21061 11.3201 6.53029 10.2582 6.20867 9.06842C5.88705 7.87861 5.93975 6.61861 6.35959 5.45981C6.77944 4.30101 7.54604 3.29966 8.55514 2.59198C9.56424 1.8843 10.7668 1.50464 11.9993 1.50464C13.2319 1.50464 14.4345 1.8843 15.4436 2.59198C16.4526 3.29966 17.2193 4.30101 17.6391 5.45981C18.0589 6.61861 18.1116 7.87861 17.79 9.06842C17.4684 10.2582 16.7881 11.3201 15.8416 12.1096ZM15.7501 7.50006C15.7501 6.5055 15.355 5.55167 14.6517 4.84841C13.9485 4.14515 12.9947 3.75006 12.0001 3.75006C11.0055 3.75006 10.0517 4.14515 9.34844 4.84841C8.64518 5.55167 8.2501 6.5055 8.2501 7.50006C8.2501 8.49462 8.64518 9.44845 9.34844 10.1517C10.0517 10.855 11.0055 11.2501 12.0001 11.2501C12.9947 11.2501 13.9485 10.855 14.6517 10.1517C15.355 9.44845 15.7501 8.49462 15.7501 7.50006Z" fill="#626262"/>
</g>
</svg>
