<svg width="20" height="20" viewBox="0 0 20 20" fill="none" xmlns="http://www.w3.org/2000/svg">
<g id="solar:phone-outline">
<path id="Vector" fill-rule="evenodd" clip-rule="evenodd" d="M4.7775 1.70258C5.79167 0.694251 7.46167 0.873418 8.31083 2.00842L9.3625 3.41175C10.0542 4.33508 9.9925 5.62508 9.17167 6.44092L8.97333 6.63925C8.95094 6.72252 8.94866 6.80992 8.96667 6.89425C9.01917 7.23425 9.30333 7.95425 10.4933 9.13758C11.6833 10.3209 12.4083 10.6043 12.7533 10.6576C12.8402 10.6761 12.9302 10.6735 13.0158 10.6501L13.3558 10.3118C14.0858 9.58675 15.2058 9.45092 16.1092 9.94175L17.7008 10.8084C19.065 11.5484 19.4092 13.4018 18.2925 14.5126L17.1083 15.6893C16.735 16.0601 16.2333 16.3693 15.6217 16.4268C14.1133 16.5676 10.5992 16.3876 6.905 12.7151C3.4575 9.28675 2.79584 6.29675 2.71167 4.82342C2.67 4.07842 3.02167 3.44842 3.47 3.00342L4.7775 1.70258ZM7.31083 2.75758C6.88834 2.19342 6.10167 2.14842 5.65834 2.58925L4.35 3.88925C4.075 4.16258 3.94334 4.46425 3.96 4.75258C4.02667 5.92342 4.56 8.62092 7.78667 11.8293C11.1717 15.1943 14.2975 15.2951 15.5058 15.1818C15.7525 15.1593 15.9975 15.0309 16.2267 14.8034L17.41 13.6259C17.8917 13.1476 17.7858 12.2759 17.1042 11.9059L15.5125 11.0401C15.0725 10.8018 14.5575 10.8801 14.2375 11.1984L13.8583 11.5759L13.4167 11.1326C13.8583 11.5759 13.8575 11.5768 13.8567 11.5768L13.8558 11.5784L13.8533 11.5809L13.8475 11.5859L13.835 11.5976C13.7996 11.6299 13.7617 11.6595 13.7217 11.6859C13.655 11.7301 13.5667 11.7793 13.4558 11.8201C13.2308 11.9043 12.9325 11.9493 12.5642 11.8926C11.8417 11.7818 10.8842 11.2893 9.61167 10.0243C8.34 8.75925 7.84334 7.80758 7.73167 7.08592C7.67417 6.71759 7.72 6.41925 7.805 6.19425C7.85214 6.06781 7.91908 5.94966 8.00333 5.84425L8.03 5.81508L8.04167 5.80258L8.04667 5.79758L8.04917 5.79508L8.05084 5.79342L8.29084 5.55508C8.6475 5.19925 8.6975 4.61008 8.36167 4.16092L7.31083 2.75758Z" fill="#626262"/>
</g>
</svg>
