<svg width="26" height="26" viewBox="0 0 26 26" fill="none" xmlns="http://www.w3.org/2000/svg">
<g id="uiw:setting" clip-path="url(#clip0_2_48695)">
<path id="Vector" d="M14.4014 2.37269e-06C14.7836 2.37269e-06 15.1255 0.237902 15.2542 0.594102L16.172 3.1382C16.5009 3.2201 16.783 3.302 17.0222 3.3878C17.2835 3.4814 17.6202 3.6231 18.0362 3.8168L20.1734 2.6858C20.3478 2.59338 20.5476 2.56002 20.7426 2.59073C20.9376 2.62143 21.1174 2.71455 21.255 2.8561L23.1348 4.7996C23.3844 5.0583 23.4546 5.4366 23.3142 5.7668L22.3119 8.1159C22.4783 8.4214 22.6109 8.6827 22.7123 8.9011C22.8215 9.139 22.9567 9.4666 23.1179 9.8891L25.454 10.8901C25.805 11.0396 26.0221 11.3906 25.9987 11.7663L25.8271 14.4638C25.8154 14.639 25.7524 14.807 25.6461 14.9468C25.5398 15.0866 25.3948 15.1921 25.2291 15.2503L23.0165 16.0368C22.9528 16.3423 22.8865 16.6036 22.8163 16.8246C22.7031 17.1659 22.5738 17.5017 22.4289 17.8308L23.5404 20.2878C23.6188 20.4604 23.64 20.6536 23.6007 20.8392C23.5614 21.0247 23.4637 21.1927 23.322 21.3187L21.2082 23.2063C21.069 23.3301 20.8953 23.4084 20.7103 23.4307C20.5254 23.453 20.338 23.4182 20.1734 23.3311L17.9946 22.1767C17.6537 22.3572 17.302 22.5165 16.9416 22.6538L15.99 23.01L15.145 25.35C15.0824 25.5214 14.9694 25.6698 14.8209 25.7758C14.6725 25.8818 14.4954 25.9405 14.313 25.9441L11.843 26C11.6557 26.0049 11.4716 25.9517 11.3158 25.8476C11.1601 25.7435 11.0404 25.5938 10.9733 25.4189L9.97749 22.7838C9.63773 22.6677 9.30133 22.542 8.96869 22.4068C8.69662 22.289 8.42866 22.162 8.16529 22.0259L5.69529 23.0815C5.53254 23.1509 5.35311 23.1716 5.17885 23.1409C5.00459 23.1102 4.84302 23.0295 4.71379 22.9086L2.88599 21.1939C2.74991 21.0668 2.65723 20.9001 2.62107 20.7174C2.58491 20.5348 2.6071 20.3454 2.68449 20.176L3.74659 17.862C3.60534 17.5879 3.47438 17.3087 3.35399 17.0248C3.21346 16.6774 3.0834 16.3258 2.96399 15.9705L0.636989 15.262C0.44784 15.2048 0.282862 15.0868 0.167676 14.9262C0.0524901 14.7657 -0.00645697 14.5716 -1.05714e-05 14.3741L0.0909894 11.8768C0.0974668 11.7139 0.148367 11.5558 0.238186 11.4197C0.328004 11.2836 0.453323 11.1746 0.600589 11.1046L3.04199 9.932C3.15509 9.5173 3.25389 9.1949 3.34099 8.9596C3.46363 8.64532 3.59983 8.3365 3.74919 8.034L2.69099 5.798C2.61068 5.6282 2.5863 5.4373 2.62134 5.25276C2.65637 5.06823 2.74903 4.89955 2.88599 4.771L4.71119 3.0472C4.83914 2.92653 4.99923 2.84539 5.17221 2.81357C5.34518 2.78174 5.52367 2.80057 5.68619 2.8678L8.15359 3.887C8.42659 3.705 8.67359 3.5581 8.89719 3.4398C9.16369 3.2981 9.51989 3.1499 9.96839 2.99L10.8264 0.596702C10.8898 0.421551 11.0058 0.270248 11.1584 0.163453C11.311 0.0566575 11.4929 -0.000424126 11.6792 2.37269e-06H14.4014ZM13.0312 9.1247C10.8641 9.1247 9.10779 10.8602 9.10779 13.0026C9.10779 15.145 10.8641 16.8818 13.0312 16.8818C15.197 16.8818 16.9533 15.145 16.9533 13.0026C16.9533 10.8602 15.1983 9.1247 13.0312 9.1247Z" fill="#3251FF"/>
</g>
<defs>
<clipPath id="clip0_2_48695">
<rect width="26" height="26" fill="white"/>
</clipPath>
</defs>
</svg>
