<svg width="26" height="26" viewBox="0 0 26 26" fill="none" xmlns="http://www.w3.org/2000/svg">
<g id="vuesax/linear/shield-tick">
<g id="shield-tick">
<path id="Vector" d="M11.3641 2.41594L5.95826 4.4526C4.71243 4.91844 3.69409 6.39177 3.69409 7.71344V15.7626C3.69409 17.0409 4.53909 18.7201 5.56826 19.4893L10.2266 22.9668C11.7541 24.1151 14.2674 24.1151 15.7949 22.9668L20.4533 19.4893C21.4824 18.7201 22.3274 17.0409 22.3274 15.7626V7.71344C22.3274 6.38094 21.3091 4.9076 20.0633 4.44177L14.6574 2.41594C13.7366 2.0801 12.2633 2.0801 11.3641 2.41594Z" fill="#3251FF" stroke="white" stroke-width="1.5" stroke-linecap="round" stroke-linejoin="round"/>
<g id="Vector_2">
<path d="M9.8042 12.859L11.5484 14.6032L16.2067 9.94482" fill="#3251FF"/>
<path d="M9.8042 12.859L11.5484 14.6032L16.2067 9.94482" stroke="white" stroke-width="1.5" stroke-linecap="round" stroke-linejoin="round"/>
</g>
</g>
</g>
</svg>
