<svg width="20" height="20" viewBox="0 0 20 20" fill="none" xmlns="http://www.w3.org/2000/svg">
<g id="timer">
<path id="Vector" d="M9.99992 10.8334V7.50008M17.4999 5.00008L15.8333 3.33341M8.33325 1.66675H11.6666M9.99992 17.5001C8.23181 17.5001 6.53612 16.7977 5.28587 15.5475C4.03563 14.2972 3.33325 12.6015 3.33325 10.8334C3.33325 9.0653 4.03563 7.36961 5.28587 6.11937C6.53612 4.86913 8.23181 4.16675 9.99992 4.16675C11.768 4.16675 13.4637 4.86913 14.714 6.11937C15.9642 7.36961 16.6666 9.0653 16.6666 10.8334C16.6666 12.6015 15.9642 14.2972 14.714 15.5475C13.4637 16.7977 11.768 17.5001 9.99992 17.5001Z" stroke="#626262" stroke-width="1.5" stroke-linecap="round" stroke-linejoin="round"/>
</g>
</svg>
