<svg width="66" height="66" viewBox="0 0 66 66" fill="none" xmlns="http://www.w3.org/2000/svg">
<mask id="mask0_383_11593" style="mask-type:luminance" maskUnits="userSpaceOnUse" x="0" y="0" width="66" height="66">
<path d="M0 0H66V66H0V0Z" fill="white"/>
</mask>
<g mask="url(#mask0_383_11593)">
<path d="M66 33C66 33.5397 65.9863 34.0794 65.9587 34.6191C65.933 35.1587 65.8934 35.6967 65.8402 36.2347C65.7869 36.7727 65.7216 37.3072 65.6425 37.8417C65.5634 38.3763 65.4706 38.9091 65.3658 39.4384C65.2592 39.9678 65.1423 40.4938 65.01 41.018C64.8794 41.5422 64.735 42.063 64.5786 42.5786C64.4222 43.0959 64.252 43.6081 64.0698 44.1169C63.8877 44.6256 63.6934 45.1292 63.4872 45.6294C63.2809 46.1278 63.0627 46.6211 62.8306 47.1092C62.6003 47.5973 62.358 48.0803 62.1019 48.5564C61.8475 49.0325 61.5828 49.5017 61.3044 49.9658C61.0259 50.4281 60.7372 50.8853 60.4381 51.3339C60.1373 51.7825 59.8262 52.2242 59.5048 52.6573C59.1834 53.0922 58.8517 53.5167 58.508 53.9344C58.1659 54.352 57.8136 54.7611 57.4509 55.1616C57.0883 55.562 56.7153 55.9522 56.3337 56.3337C55.9522 56.717 55.5603 57.0883 55.1616 57.4509C54.7611 57.8136 54.352 58.1659 53.9344 58.5097C53.5167 58.8517 53.0905 59.1834 52.6573 59.5066C52.2242 59.828 51.7825 60.1391 51.3339 60.4381C50.8836 60.7389 50.4281 61.0277 49.9641 61.3044C49.5017 61.5828 49.0325 61.8492 48.5547 62.1036C48.0786 62.358 47.5973 62.6003 47.1092 62.8323C46.6211 63.0627 46.1261 63.2809 45.6277 63.4872C45.1292 63.6952 44.6256 63.8894 44.1169 64.0716C43.6081 64.2537 43.0959 64.4222 42.5786 64.5786C42.0612 64.735 41.5422 64.8794 41.018 65.0117C40.4938 65.1423 39.9678 65.2609 39.4367 65.3658C38.9073 65.4706 38.3763 65.5634 37.8417 65.6425C37.3072 65.7216 36.7709 65.7886 36.2347 65.8419C35.6967 65.8934 35.1587 65.933 34.6191 65.9605C34.0794 65.9863 33.5397 66 33 66C32.4586 66 31.9189 65.9863 31.3792 65.9605C30.8412 65.933 30.3016 65.8934 29.7653 65.8419C29.2273 65.7886 28.6911 65.7216 28.1566 65.6425C27.6237 65.5634 27.0909 65.4706 26.5616 65.3658C26.0322 65.2609 25.5045 65.1423 24.9803 65.0117C24.4578 64.8794 23.937 64.735 23.4197 64.5786C22.9023 64.4222 22.3902 64.2537 21.8814 64.0716C21.3727 63.8894 20.8691 63.6952 20.3706 63.4872C19.8722 63.2809 19.3789 63.0627 18.8908 62.8323C18.4009 62.6003 17.9197 62.358 17.4436 62.1036C16.9675 61.8492 16.4966 61.5828 16.0342 61.3044C15.5702 61.0277 15.1147 60.7389 14.6661 60.4381C14.2158 60.1391 13.7758 59.828 13.3409 59.5066C12.9078 59.1834 12.4816 58.8517 12.0639 58.5097C11.6462 58.1659 11.2372 57.8136 10.8384 57.4509C10.438 57.0883 10.0461 56.717 9.66453 56.3337C9.28297 55.9522 8.91 55.562 8.54734 55.1616C8.18469 54.7611 7.83234 54.352 7.49031 53.9344C7.14656 53.5167 6.81484 53.0922 6.49344 52.6573C6.17203 52.2242 5.86094 51.7825 5.56016 51.3339C5.26109 50.8853 4.97234 50.4281 4.69391 49.9658C4.41719 49.5017 4.15078 49.0325 3.89641 48.5564C3.64203 48.0803 3.39797 47.5973 3.16766 47.1092C2.93734 46.6211 2.71734 46.1278 2.51109 45.6294C2.30484 45.1292 2.11063 44.6256 1.92844 44.1169C1.74625 43.6081 1.57781 43.0959 1.41969 42.5786C1.26328 42.063 1.11891 41.5422 0.988281 41.018C0.857656 40.4938 0.739063 39.9678 0.634219 39.4384C0.527656 38.9091 0.436563 38.3763 0.355781 37.8417C0.276719 37.3072 0.211406 36.7727 0.158125 36.2347C0.104844 35.6967 0.0653126 35.1587 0.0395312 34.6191C0.0120312 34.0794 0 33.5397 0 33C0 32.4603 0.0120312 31.9206 0.0395312 31.3809C0.0653126 30.8412 0.104844 30.3033 0.158125 29.7653C0.211406 29.2273 0.276719 28.6928 0.355781 28.1583C0.436563 27.6238 0.527656 27.0909 0.634219 26.5616C0.739063 26.0322 0.857656 25.5063 0.988281 24.982C1.11891 24.4578 1.26328 23.937 1.41969 23.4214C1.57781 22.9041 1.74625 22.3919 1.92844 21.8831C2.11063 21.3744 2.30484 20.8708 2.51109 20.3706C2.71734 19.8722 2.93734 19.3789 3.16766 18.8908C3.39797 18.4027 3.64203 17.9197 3.89641 17.4436C4.15078 16.9675 4.41719 16.4983 4.69391 16.0342C4.97234 15.5719 5.26109 15.1147 5.56016 14.6661C5.86094 14.2175 6.17203 13.7758 6.49344 13.3427C6.81484 12.9078 7.14656 12.4833 7.49031 12.0656C7.83234 11.648 8.18469 11.2389 8.54734 10.8384C8.91 10.438 9.28297 10.0478 9.66453 9.66625C10.0461 9.28297 10.438 8.91172 10.8384 8.54906C11.2372 8.18641 11.6462 7.83406 12.0639 7.49031C12.4816 7.14828 12.9078 6.81656 13.3409 6.49344C13.7758 6.17203 14.2158 5.86094 14.6661 5.56187C15.1147 5.26109 15.5702 4.97234 16.0342 4.69562C16.4966 4.41719 16.9675 4.15078 17.4436 3.89641C17.9197 3.64203 18.4009 3.39969 18.8908 3.16766C19.3789 2.93734 19.8722 2.71906 20.3706 2.51281C20.8691 2.30484 21.3727 2.11063 21.8814 1.92844C22.3902 1.74625 22.9023 1.57781 23.4197 1.42141C23.937 1.265 24.4578 1.12062 24.9803 0.988281C25.5045 0.857656 26.0322 0.739063 26.5616 0.634219C27.0909 0.529375 27.6237 0.436563 28.1566 0.3575C28.6911 0.278437 29.2273 0.211406 29.7653 0.158125C30.3016 0.106563 30.8412 0.0670312 31.3792 0.0395312C31.9189 0.0137499 32.4586 0 33 0C33.5397 0 34.0794 0.0137499 34.6191 0.0395312C35.1587 0.0670312 35.6967 0.106563 36.2347 0.158125C36.7709 0.211406 37.3072 0.278437 37.8417 0.3575C38.3763 0.436563 38.9073 0.529375 39.4367 0.634219C39.9678 0.739063 40.4938 0.857656 41.018 0.988281C41.5422 1.12062 42.0612 1.265 42.5786 1.42141C43.0959 1.57781 43.6081 1.74625 44.1169 1.92844C44.6256 2.11063 45.1292 2.30484 45.6277 2.51281C46.1261 2.71906 46.6211 2.93734 47.1092 3.16766C47.5973 3.39969 48.0786 3.64203 48.5547 3.89641C49.0325 4.15078 49.5017 4.41719 49.9641 4.69562C50.4281 4.97234 50.8836 5.26109 51.3339 5.56187C51.7825 5.86094 52.2242 6.17203 52.6573 6.49344C53.0905 6.81656 53.5167 7.14828 53.9344 7.49031C54.352 7.83406 54.7611 8.18641 55.1616 8.54906C55.5603 8.91172 55.9522 9.28297 56.3337 9.66625C56.7153 10.0478 57.0883 10.438 57.4509 10.8384C57.8136 11.2389 58.1659 11.648 58.508 12.0656C58.8517 12.4833 59.1834 12.9078 59.5048 13.3427C59.8262 13.7758 60.1373 14.2175 60.4381 14.6661C60.7372 15.1147 61.0259 15.5719 61.3044 16.0342C61.5828 16.4983 61.8475 16.9675 62.1019 17.4436C62.358 17.9197 62.6003 18.4027 62.8306 18.8908C63.0627 19.3789 63.2809 19.8722 63.4872 20.3706C63.6934 20.8708 63.8877 21.3744 64.0698 21.8831C64.252 22.3919 64.4222 22.9041 64.5786 23.4214C64.735 23.937 64.8794 24.4578 65.01 24.982C65.1423 25.5063 65.2592 26.0322 65.3658 26.5616C65.4706 27.0909 65.5634 27.6238 65.6425 28.1583C65.7216 28.6928 65.7869 29.2273 65.8402 29.7653C65.8934 30.3033 65.933 30.8412 65.9587 31.3809C65.9863 31.9206 66 32.4603 66 33Z" fill="#FF9C33"/>
</g>
<path d="M61.6876 33.0002C61.6876 33.4694 61.6755 33.9386 61.6532 34.4078C61.6291 34.877 61.5948 35.3445 61.5484 35.812C61.5037 36.2795 61.4452 36.7453 61.3765 37.2094C61.3077 37.6734 61.227 38.1358 61.1359 38.5964C61.0448 39.057 60.9416 39.5159 60.8282 39.9714C60.7131 40.4269 60.5876 40.8789 60.4518 41.3275C60.316 41.7778 60.1682 42.223 60.0101 42.6647C59.852 43.1064 59.6835 43.5447 59.5031 43.9778C59.3243 44.4127 59.1335 44.8406 58.9324 45.2652C58.7313 45.6897 58.5216 46.1091 58.2999 46.5233C58.0782 46.9375 57.8479 47.3466 57.6055 47.7488C57.3649 48.1509 57.114 48.548 56.8527 48.9381C56.5915 49.3283 56.3216 49.7133 56.0415 50.0897C55.7613 50.4661 55.4726 50.8373 55.1752 51.2C54.8779 51.5627 54.5702 51.9184 54.2557 52.2656C53.9412 52.6145 53.6163 52.9531 53.2846 53.2848C52.9529 53.6183 52.6126 53.9414 52.2654 54.2559C51.9165 54.5722 51.5624 54.8781 51.1981 55.1755C50.8354 55.4745 50.4659 55.7633 50.0895 56.0417C49.7113 56.3219 49.328 56.5917 48.9379 56.853C48.5477 57.1142 48.1507 57.3652 47.7485 57.6075C47.3446 57.8481 46.9373 58.0802 46.523 58.3002C46.1088 58.5219 45.6895 58.7333 45.2649 58.9344C44.8404 59.1338 44.4107 59.3245 43.9776 59.505C43.5445 59.6838 43.1062 59.8522 42.6645 60.0103C42.221 60.1702 41.7759 60.3163 41.3273 60.452C40.877 60.5895 40.4249 60.715 39.9695 60.8284C39.514 60.9419 39.0568 61.045 38.5962 61.1361C38.1355 61.2289 37.6732 61.308 37.2091 61.3784C36.7434 61.4472 36.2776 61.5039 35.8118 61.5503C35.3443 61.5967 34.8751 61.6311 34.4076 61.6534C33.9384 61.6758 33.4691 61.6878 32.9999 61.6878C32.529 61.6878 32.0598 61.6758 31.5923 61.6534C31.123 61.6311 30.6538 61.5967 30.188 61.5503C29.7205 61.5039 29.2548 61.4472 28.789 61.3784C28.3249 61.308 27.8626 61.2289 27.402 61.1361C26.9413 61.045 26.4841 60.9419 26.0287 60.8284C25.5732 60.715 25.1212 60.5895 24.6709 60.452C24.2223 60.3163 23.7771 60.1702 23.3337 60.012C22.892 59.8522 22.4554 59.6838 22.0205 59.505C21.5874 59.3245 21.1577 59.1338 20.7332 58.9344C20.3087 58.7333 19.8893 58.5219 19.4751 58.3002C19.0609 58.0802 18.6535 57.8481 18.2513 57.6075C17.8474 57.3652 17.4521 57.1142 17.0602 56.853C16.6701 56.5917 16.2868 56.3219 15.9104 56.0417C15.5323 55.7633 15.1627 55.4745 14.8001 55.1755C14.4374 54.8781 14.0816 54.5722 13.7327 54.2559C13.3855 53.9414 13.0452 53.6183 12.7135 53.2848C12.3818 52.9531 12.0587 52.6145 11.7424 52.2656C11.4279 51.9184 11.1202 51.5627 10.8229 51.2C10.5255 50.8373 10.2368 50.4661 9.95664 50.0897C9.67649 49.7133 9.40664 49.3283 9.14539 48.9381C8.88586 48.548 8.63492 48.1509 8.39258 47.7488C8.15195 47.3466 7.91992 46.9375 7.6982 46.5233C7.47648 46.1091 7.2668 45.6897 7.0657 45.2652C6.86461 44.8406 6.67383 44.4127 6.49508 43.9778C6.31461 43.5447 6.14617 43.1064 5.98805 42.6647C5.82992 42.223 5.68211 41.7778 5.54633 41.3275C5.41055 40.8789 5.28508 40.4269 5.17164 39.9714C5.05648 39.5159 4.95336 39.057 4.86227 38.5964C4.77117 38.1358 4.69039 37.6734 4.62164 37.2094C4.55289 36.7453 4.49617 36.2795 4.44977 35.812C4.40336 35.3445 4.36898 34.877 4.34492 34.4078C4.32258 33.9386 4.31055 33.4694 4.31055 33.0002C4.31055 32.5309 4.32258 32.0617 4.34492 31.5925C4.36898 31.1233 4.40336 30.6558 4.44977 30.1883C4.49617 29.7208 4.55289 29.255 4.62164 28.7909C4.69039 28.3269 4.77117 27.8645 4.86227 27.4039C4.95336 26.9433 5.05648 26.4844 5.17164 26.0289C5.28508 25.5734 5.41055 25.1214 5.54633 24.6728C5.68211 24.2225 5.82992 23.7773 5.98805 23.3356C6.14617 22.8939 6.31461 22.4556 6.49508 22.0225C6.67383 21.5877 6.86461 21.1597 7.0657 20.7352C7.2668 20.3106 7.47648 19.8913 7.6982 19.477C7.91992 19.0628 8.15195 18.6538 8.39258 18.2516C8.63492 17.8494 8.88586 17.4523 9.14539 17.0622C9.40664 16.672 9.67649 16.287 9.95664 15.9106C10.2368 15.5342 10.5255 15.163 10.8229 14.8003C11.1202 14.4377 11.4279 14.0819 11.7424 13.7347C12.0587 13.3858 12.3818 13.0472 12.7135 12.7155C13.0452 12.382 13.3855 12.0589 13.7327 11.7444C14.0816 11.4281 14.4374 11.1222 14.8001 10.8248C15.1627 10.5258 15.5323 10.237 15.9104 9.95859C16.2868 9.67844 16.6701 9.40859 17.0602 9.14734C17.4521 8.88609 17.8474 8.63516 18.2513 8.39281C18.6535 8.15219 19.0609 7.92016 19.4751 7.70016C19.8893 7.47844 20.3087 7.26703 20.7332 7.06594C21.1577 6.86656 21.5874 6.67578 22.0205 6.49531C22.4554 6.31656 22.892 6.14813 23.3337 5.98828C23.7771 5.83016 24.2223 5.68406 24.6709 5.54828C25.1212 5.41078 25.5732 5.28531 26.0287 5.17188C26.4841 5.05844 26.9413 4.95531 27.402 4.86422C27.8626 4.77141 28.3249 4.69234 28.789 4.62188C29.2548 4.55313 29.7205 4.49641 30.188 4.45C30.6538 4.40359 31.123 4.36922 31.5923 4.34688C32.0598 4.32453 32.529 4.3125 32.9999 4.3125C33.4691 4.3125 33.9384 4.32453 34.4076 4.34688C34.8751 4.36922 35.3443 4.40359 35.8118 4.45C36.2776 4.49641 36.7434 4.55313 37.2091 4.62188C37.6732 4.69234 38.1355 4.77141 38.5962 4.86422C39.0568 4.95531 39.514 5.05844 39.9695 5.17188C40.4249 5.28531 40.877 5.41078 41.3273 5.54828C41.7759 5.68406 42.221 5.83016 42.6645 5.98828C43.1062 6.14813 43.5445 6.31656 43.9776 6.49531C44.4107 6.67578 44.8404 6.86656 45.2649 7.06594C45.6895 7.26703 46.1088 7.47844 46.523 7.70016C46.9373 7.92016 47.3446 8.15219 47.7485 8.39281C48.1507 8.63516 48.5477 8.88609 48.9379 9.14734C49.328 9.40859 49.7113 9.67844 50.0895 9.95859C50.4659 10.237 50.8354 10.5258 51.1981 10.8248C51.5624 11.1222 51.9165 11.4281 52.2654 11.7444C52.6126 12.0589 52.9529 12.382 53.2846 12.7155C53.6163 13.0472 53.9412 13.3858 54.2557 13.7347C54.5702 14.0819 54.8779 14.4377 55.1752 14.8003C55.4726 15.163 55.7613 15.5342 56.0415 15.9106C56.3216 16.287 56.5915 16.672 56.8527 17.0622C57.114 17.4523 57.3649 17.8494 57.6055 18.2516C57.8479 18.6538 58.0782 19.0628 58.2999 19.477C58.5216 19.8913 58.7313 20.3106 58.9324 20.7352C59.1335 21.1597 59.3243 21.5877 59.5031 22.0225C59.6835 22.4556 59.852 22.8939 60.0101 23.3356C60.1682 23.7773 60.316 24.2225 60.4518 24.6728C60.5876 25.1214 60.7131 25.5734 60.8282 26.0289C60.9416 26.4844 61.0448 26.9433 61.1359 27.4039C61.227 27.8645 61.3077 28.3269 61.3765 28.7909C61.4452 29.255 61.5037 29.7208 61.5484 30.1883C61.5948 30.6558 61.6291 31.1233 61.6532 31.5925C61.6755 32.0617 61.6876 32.5309 61.6876 33.0002Z" fill="#FFBC5F"/>
<path fill-rule="evenodd" clip-rule="evenodd" d="M31.7452 61.6653C16.4776 61.0053 4.31055 48.4224 4.31055 33C4.31055 17.5777 16.4776 4.99472 31.7452 4.33472C46.9905 4.99472 59.1576 17.5777 59.1576 33C59.1576 48.4224 46.9905 61.0053 31.7452 61.6653Z" fill="#FFAD39"/>
<path fill-rule="evenodd" clip-rule="evenodd" d="M52.1301 37.124C51.8212 37.124 51.6261 36.8151 51.7094 36.5631C52.2134 34.6829 51.6809 33.4207 52.4939 33.4207C52.7481 33.4207 52.9431 33.6442 52.9431 33.87C52.9146 34.8232 52.8029 35.7764 52.6079 36.7296C52.5224 36.9553 52.3274 37.124 52.1301 37.124ZM51.1769 26.3253C50.9797 26.3253 50.811 26.2113 50.7277 26.0448C50.3902 25.2033 49.9432 24.3049 49.494 23.4634C45.1749 16.0305 36.3659 12.3841 28.0652 14.5996C26.494 14.9918 24.9513 15.6382 23.5204 16.4797C22.9594 16.7602 22.5672 15.9735 23.0427 15.693C24.5591 14.7968 26.242 14.124 27.8395 13.7033C36.5061 11.374 45.7907 15.189 50.307 23.0142C50.7847 23.8557 51.2317 24.7541 51.5977 25.6503C51.7094 25.9878 51.4574 26.3253 51.1769 26.3253ZM17.0122 22.6504C16.872 22.8455 16.7317 22.9024 16.5652 22.9024C16.1992 22.9024 15.9757 22.4817 16.1707 22.1442C16.9289 21.0508 17.6301 20.126 18.4146 19.3394C18.8639 18.8923 19.4818 19.5081 19.1159 19.9573C18.4146 20.7418 17.7134 21.6118 17.0122 22.6504ZM14.9085 27.0528C13.1993 32.2155 13.7603 37.8516 16.5082 42.5366C23.5489 54.6545 40.9676 55.439 48.933 43.3496C49.2968 42.8171 50.0835 43.2948 49.7745 43.8558C48.0061 46.5467 45.7359 48.7073 42.9858 50.307C39.8172 52.1017 36.3943 52.9716 33 52.9716C26.128 52.9716 19.37 49.3801 15.6667 42.9858C12.8334 38.0773 12.2176 32.1585 14.0123 26.8008C14.2073 26.185 15.0773 26.5203 14.9085 27.0528ZM10 32.9715C10 45.6789 20.3233 56 32.9737 56C45.6789 56 56 45.6789 56 32.9715C56 20.2663 45.6789 10 32.9737 10C20.3233 10 10 20.3211 10 32.9715Z" fill="#F5F6FF"/>
<path d="M30.5 34.75C30.5 35.72 31.25 36.5 32.17 36.5H34.05C34.85 36.5 35.5 35.82 35.5 34.97C35.5 34.06 35.1 33.73 34.51 33.52L31.5 32.47C30.91 32.26 30.51 31.94 30.51 31.02C30.51 30.18 31.16 29.49 31.96 29.49H33.84C34.76 29.49 35.51 30.27 35.51 31.24" stroke="#FCA311" stroke-width="1.5" stroke-linecap="round" stroke-linejoin="round"/>
<path d="M33 28.5V37.5" stroke="#FCA311" stroke-width="1.5" stroke-linecap="round" stroke-linejoin="round"/>
<path d="M43 33C43 38.52 38.52 43 33 43C27.48 43 23 38.52 23 33C23 27.48 27.48 23 33 23" stroke="#FCA311" stroke-width="1.5" stroke-linecap="round" stroke-linejoin="round"/>
<path d="M38 24V28H42" stroke="#FCA311" stroke-width="1.5" stroke-linecap="round" stroke-linejoin="round"/>
<path d="M43 23L38 28" stroke="#FCA311" stroke-width="1.5" stroke-linecap="round" stroke-linejoin="round"/>
</svg>
